<?xml version="1.0" encoding="UTF-8"?>
<svg version="1.1" xmlns="http://www.w3.org/2000/svg" width="720" height="720">
<path d="M0 0 C237.6 0 475.2 0 720 0 C720 237.6 720 475.2 720 720 C482.4 720 244.8 720 0 720 C0 482.4 0 244.8 0 0 Z " fill="#000000" transform="translate(0,0)"/>
<path d="M0 0 C2.11891172 0.92222064 4.20118744 1.93105432 6.25 3 C13.60116764 6.40753232 20.50332822 6.33222163 28.5 6.125 C47.31675527 5.65879882 60.69594387 9.57990198 74.625 22.66015625 C90.41638746 38.21778962 100.74778232 58.55571225 106 80 C106.33902344 81.13566406 106.67804688 82.27132812 107.02734375 83.44140625 C113.43402309 106.88110455 113.62838625 139.59455745 104 162 C103.73268066 162.62793457 103.46536133 163.25586914 103.18994141 163.90283203 C94.7678136 182.84098683 79.62226745 196.71314349 62 207 C61.37947754 207.36448242 60.75895508 207.72896484 60.11962891 208.10449219 C39.08268426 220.27444791 15.23708799 228.79873074 -8.1875 235 C-8.8266333 235.1698642 -9.4657666 235.33972839 -10.12426758 235.51473999 C-30.79723552 240.97846491 -51.79605067 244.3629062 -73 247 C-73.34554932 247.92707764 -73.69109863 248.85415527 -74.04711914 249.80932617 C-117.94993594 367.42490391 -117.94993594 367.42490391 -139 399 C-139.32116645 400.59485219 -139.58727802 402.20129658 -139.8125 403.8125 C-140.7900514 408.94088504 -141.92843223 411.6522665 -146 415 C-149.5 415.375 -149.5 415.375 -153 414 C-156.8057017 410.28967929 -158.32137605 406.19400215 -158.5625 400.9375 C-158.26805294 395.9164027 -157.2256953 392.88737639 -154 389 C-150.5625 388.375 -150.5625 388.375 -147 388 C-117.47848485 362.59446533 -103.37037025 305.04408772 -89.81982422 269.73291016 C-86.90643135 262.14499478 -83.95112945 254.57329835 -81 247 C-81.96333252 247.1429248 -82.92666504 247.28584961 -83.91918945 247.43310547 C-100.16270608 249.59418772 -116.47867228 249.23196272 -132.82684326 249.1373291 C-136.80316003 249.11656182 -140.77950356 249.1076706 -144.75585938 249.09765625 C-152.50397759 249.07645466 -160.25196612 249.04249722 -168 249 C-170.69289519 244.06650467 -171.36150106 241.55073509 -170 236 C-169.34 235.01 -168.68 234.02 -168 233 C-163.65543586 233.50518188 -159.55179688 234.35582374 -155.3125 235.4375 C-129.80369358 241.35763255 -102.91647024 239.19550887 -77 238 C-76.83636963 236.75863281 -76.83636963 236.75863281 -76.66943359 235.4921875 C-75.91233304 231.54267391 -74.66869809 227.88793113 -73.2890625 224.125 C-73.00944168 223.3486319 -72.72982086 222.57226379 -72.44172668 221.77236938 C-71.50728179 219.17994406 -70.56605198 216.59003349 -69.625 214 C-68.25101568 210.19635192 -66.88103739 206.39126741 -65.51171875 202.5859375 C-65.1496785 201.58098236 -64.78763824 200.57602722 -64.41462708 199.5406189 C-61.6560381 191.86761342 -58.95214321 184.1764275 -56.26953125 176.4765625 C-47.31586037 150.7900776 -38.21835322 125.21381391 -28 100 C-27.73401001 99.34358521 -27.46802002 98.68717041 -27.19396973 98.01086426 C-21.60062318 84.23031492 -15.85496926 70.51326414 -9.94018555 56.86743164 C-7.52382617 51.28456479 -5.23390696 45.65829026 -3 40 C-3.77085937 39.72414062 -4.54171875 39.44828125 -5.3359375 39.1640625 C-10.15672782 37.05761746 -12.76349185 32.99732146 -14.8125 28.3125 C-17.18473136 21.11353199 -16.99059944 14.36126919 -13.75 7.5 C-10.4077726 1.14564173 -7.27725888 -0.7495889 0 0 Z " fill="#010101" transform="translate(488,166)"/>
<path d="M0 0 C2.5 0.5 2.5 0.5 4.25 2.0625 C13.04105646 19.20506009 6.54840644 52.18811875 4.4765625 70.7109375 C4.36934875 71.69560879 4.26213501 72.68028008 4.15167236 73.69478989 C1.19865023 100.74893801 -2.68152906 127.68244474 -6.5 154.625 C-12.3892076 196.08715204 -12.3892076 196.08715204 -17.41796875 237.66015625 C-17.51850052 238.57377552 -17.61903229 239.48739479 -17.72261047 240.42869949 C-20.56855855 266.49599823 -21.83589646 292.2819892 -21.5 318.5 C11.85154928 261.20737534 38.33001542 201.88282476 59.31054688 139.04931641 C60.30107256 136.09359754 61.30705551 133.14447609 62.328125 130.19921875 C65.53245966 120.90502887 68.21907692 111.50509792 70.82324219 102.02587891 C73.00649243 94.12270518 75.41311528 86.31499689 77.95166016 78.51953125 C79.63710408 73.3139039 81.18502737 68.09588771 82.61523438 62.81469727 C85.11646236 53.61462726 88.14566399 44.71480434 91.5625 35.8125 C91.97411377 34.73774414 92.38572754 33.66298828 92.80981445 32.55566406 C99.96139064 14.28843817 99.96139064 14.28843817 104.5 10.5 C106.9375 10 106.9375 10 109.5 10.5 C113.21714256 14.22312211 114.0163831 16.74792263 114.06640625 21.94921875 C114.08634644 23.90226929 114.08634644 23.90226929 114.10668945 25.89477539 C114.09455152 27.32570793 114.07973952 28.75661983 114.0625 30.1875 C114.05890472 30.92064423 114.05530945 31.65378845 114.05160522 32.40914917 C113.86285944 59.74430345 110.03111676 87.30051931 104.06005859 113.94726562 C103.37568848 117.06660907 102.77953299 120.19845546 102.18652344 123.33618164 C97.89167288 145.85532258 92.31138205 168.17184817 86.875 190.4375 C83.14504321 205.73387312 79.79092469 221.10433745 76.5 236.5 C76.26539063 237.59183594 76.03078125 238.68367187 75.7890625 239.80859375 C70.33959143 265.22877351 65.68567679 290.68986541 62.5 316.5 C62.4160498 317.1673114 62.33209961 317.8346228 62.24560547 318.52215576 C60.82408346 329.94081485 60.00775922 341.3319868 59.49462891 352.82568359 C59.37383471 355.52605008 59.24421167 358.22588894 59.11328125 360.92578125 C59.03074302 362.67966371 58.94869394 364.43356928 58.8671875 366.1875 C58.82971405 366.97624512 58.7922406 367.76499023 58.75363159 368.57763672 C58.65193732 370.88486183 58.57129066 373.19164301 58.5 375.5 C58.44975677 376.85170288 58.44975677 376.85170288 58.39849854 378.23071289 C58.37801453 379.12910889 58.35753052 380.02750488 58.33642578 380.953125 C58.31363556 381.77329102 58.29084534 382.59345703 58.2673645 383.43847656 C58.30216008 385.77186075 58.30216008 385.77186075 60.75 387.5625 C61.6575 388.201875 62.565 388.84125 63.5 389.5 C67.36767056 395.44360876 68.54324674 401.52727944 67.5 408.5 C66.16690642 413.70505641 64.6017711 417.4471965 60.6875 421.1875 C56.55578028 422.88879636 54.72820744 423.01007408 50.5 421.5 C44.49404123 415.68645181 42.33593716 409.22234161 42.13671875 401.0390625 C42.5 398.5 42.5 398.5 43.95410156 394.90014648 C45.64277121 390.46895289 46.20308288 386.2617255 46.59765625 381.55859375 C46.67663651 380.72258133 46.75561676 379.88656891 46.83699036 379.02522278 C47.08906117 376.33014816 47.32561837 373.63394773 47.5625 370.9375 C47.73670664 369.06142225 47.91200589 367.18544564 48.08837891 365.30957031 C48.78148015 357.87366733 49.45082747 350.43726706 49.98828125 342.98828125 C51.89494951 316.73182101 56.94082489 290.74374898 62.70263672 265.09179688 C64.0351343 259.08943791 65.29807257 253.07245423 66.56643677 247.05627441 C67.24035918 243.86004073 67.9168109 240.66434603 68.59375 237.46875 C68.73354782 236.80847809 68.87334564 236.14820618 69.01737976 235.46792603 C69.95035838 231.06890961 70.89252893 226.67193606 71.83935547 222.27587891 C75.79409657 203.90432829 79.61747037 185.50760641 83.40087891 167.10009766 C84.16451777 163.38680145 84.92941515 159.67376851 85.6953125 155.9609375 C85.93913162 154.77864563 86.18295074 153.59635376 86.43415833 152.37823486 C87.80056141 145.78251164 89.21829909 139.20192783 90.70703125 132.6328125 C92.40249774 125.12675741 93.81801846 117.59518096 95.0625 110 C95.27229492 108.72970947 95.48208984 107.45941895 95.69824219 106.15063477 C98.85017302 86.61619134 101.81651504 66.52021295 101.5625 46.6875 C101.55573242 45.63079102 101.55573242 45.63079102 101.54882812 44.55273438 C101.53737041 42.86844991 101.51945815 41.18421103 101.5 39.5 C91.34414983 59.36893849 84.47125026 80.7778162 78.62695312 102.27441406 C74.6640738 116.73707179 69.80767668 130.91161785 64.99588013 145.1081543 C63.33055969 150.02465735 61.68684701 154.9476858 60.06063843 159.8772583 C48.1845626 195.83716037 34.46053924 231.14591249 18.5 265.5 C18.19578125 266.15637451 17.8915625 266.81274902 17.578125 267.48901367 C-3.45795274 312.86909238 -3.45795274 312.86909238 -12.3125 328 C-12.66175537 328.60610107 -13.01101074 329.21220215 -13.37084961 329.83666992 C-15.59728732 333.52226595 -17.90664342 336.11611466 -21.5 338.5 C-24.62247847 338.5 -25.91333251 338.07922358 -28.13549805 335.88525391 C-30.02604874 332.58042652 -29.80164533 330.12765053 -29.70703125 326.3359375 C-29.68718925 325.28156998 -29.68718925 325.28156998 -29.66694641 324.2059021 C-29.63767769 322.71798107 -29.60192755 321.23017522 -29.56011963 319.74255371 C-29.50231434 317.58632841 -29.46792715 315.43124425 -29.44287109 313.27441406 C-28.82214482 263.13707191 -21.93894625 213.56423177 -15.04711914 163.96582031 C-9.40402175 123.96492184 -9.40402175 123.96492184 -5.71777344 83.74951172 C-5.5 81.5 -5.5 81.5 -5.01245117 78.73046875 C-4.41344386 74.95435405 -4.14495343 71.19597692 -3.94140625 67.3828125 C-3.89915421 66.60334259 -3.85690216 65.82387268 -3.81336975 65.02078247 C-3.35787689 55.80667848 -3.39036389 46.59766937 -3.4375 37.375 C-3.44253526 35.62630339 -3.44709451 33.87760535 -3.45117188 32.12890625 C-3.46199359 27.91923411 -3.47914116 23.70963387 -3.5 19.5 C-4.45235796 21.8425163 -5.4009979 24.18643089 -6.34765625 26.53125 C-6.74627869 27.51013184 -6.74627869 27.51013184 -7.1529541 28.50878906 C-15.12089443 48.29126161 -18.73136181 69.67837097 -23.22265625 90.45703125 C-23.7936325 93.0964928 -24.36522682 95.73581934 -24.9375 98.375 C-25.0800824 99.03280457 -25.22266479 99.69060913 -25.36956787 100.36834717 C-28.35618579 114.11366792 -31.65429893 127.77688094 -35.01582336 141.43463135 C-36.17225366 146.14031412 -37.3034136 150.85156638 -38.421875 155.56640625 C-38.7330079 156.87346925 -39.04420479 158.18051703 -39.35546875 159.48754883 C-39.92889384 161.89940858 -40.4994667 164.3119493 -41.06640625 166.7253418 C-42.90457171 174.4249234 -45.12228277 181.95159205 -47.5 189.5 C-48.51448791 192.88888108 -49.49687729 196.28702281 -50.47851562 199.68554688 C-54.50197797 213.48995134 -58.97600074 227.1454273 -63.625 240.75 C-63.90590485 241.57227081 -64.18680969 242.39454163 -64.47622681 243.24172974 C-76.14493144 277.30047777 -90.50745866 309.93282084 -106.31445312 342.25602722 C-107.98300704 345.66944912 -109.64874597 349.08423613 -111.3125 352.5 C-111.65065735 353.19423065 -111.9888147 353.8884613 -112.33721924 354.60372925 C-117.70785053 365.64665361 -122.86635495 376.77358075 -127.91534424 387.96673584 C-132.57769704 398.30226564 -137.30704914 408.60335313 -142.12695312 418.8664856 C-142.82545532 420.3539986 -143.52291063 421.84200371 -144.21923828 423.33053589 C-145.1885734 425.4015463 -146.16197155 427.4705948 -147.13671875 429.5390625 C-147.96755981 431.30564209 -147.96755981 431.30564209 -148.81518555 433.10791016 C-154.45204738 444.45678108 -154.45204738 444.45678108 -159.5 446.5 C-162.375 447.1875 -162.375 447.1875 -165.5 446.5 C-170.79882169 441.91064398 -174.1223698 437.04972389 -174.87109375 430.01171875 C-175.09313795 417.22458501 -175.09313795 417.22458501 -171.30859375 412.25 C-168.25636351 409.29665411 -164.80873153 406.95092299 -161.328125 404.53125 C-139.27254498 388.69022568 -127.16859269 357.08245089 -114.40797424 333.79489136 C-112.36303108 330.06485058 -110.30273329 326.34382733 -108.23046875 322.62890625 C-82.38236433 276.1356707 -63.35271035 224.59744977 -50.4375 173 C-49.92161302 170.96167513 -49.40409204 168.92376943 -48.88648987 166.88587952 C-48.38810737 164.92272438 -47.89129801 162.95917008 -47.39453125 160.99560547 C-46.47054213 157.38488596 -45.50241237 153.78873655 -44.51831055 150.1940918 C-41.71102701 139.89127861 -39.47833001 129.46597339 -37.22851562 119.03076172 C-34.95078439 108.47689873 -32.53803931 97.96122682 -30.05517578 87.45336914 C-28.37539716 80.32348527 -26.77087485 73.18309783 -25.23339844 66.02124023 C-11.47195384 2.29439077 -11.47195384 2.29439077 0 0 Z " fill="#F6F6F6" transform="translate(231.5,175.5)"/>
<path d="M0 0 C2.11891172 0.92222064 4.20118744 1.93105432 6.25 3 C13.60116764 6.40753232 20.50332822 6.33222163 28.5 6.125 C47.31675527 5.65879882 60.69594387 9.57990198 74.625 22.66015625 C90.41638746 38.21778962 100.74778232 58.55571225 106 80 C106.33902344 81.13566406 106.67804688 82.27132812 107.02734375 83.44140625 C113.43402309 106.88110455 113.62838625 139.59455745 104 162 C103.73268066 162.62793457 103.46536133 163.25586914 103.18994141 163.90283203 C94.7678136 182.84098683 79.62226745 196.71314349 62 207 C61.37947754 207.36448242 60.75895508 207.72896484 60.11962891 208.10449219 C39.08268426 220.27444791 15.23708799 228.79873074 -8.1875 235 C-8.8266333 235.1698642 -9.4657666 235.33972839 -10.12426758 235.51473999 C-30.79723552 240.97846491 -51.79605067 244.3629062 -73 247 C-73.34554932 247.92707764 -73.69109863 248.85415527 -74.04711914 249.80932617 C-117.94993594 367.42490391 -117.94993594 367.42490391 -139 399 C-139.32116645 400.59485219 -139.58727802 402.20129658 -139.8125 403.8125 C-140.7900514 408.94088504 -141.92843223 411.6522665 -146 415 C-149.5 415.375 -149.5 415.375 -153 414 C-156.8057017 410.28967929 -158.32137605 406.19400215 -158.5625 400.9375 C-158.26805294 395.9164027 -157.2256953 392.88737639 -154 389 C-150.5625 388.375 -150.5625 388.375 -147 388 C-117.47848485 362.59446533 -103.37037025 305.04408772 -89.81982422 269.73291016 C-86.90643135 262.14499478 -83.95112945 254.57329835 -81 247 C-81.96333252 247.1429248 -82.92666504 247.28584961 -83.91918945 247.43310547 C-100.16270608 249.59418772 -116.47867228 249.23196272 -132.82684326 249.1373291 C-136.80316003 249.11656182 -140.77950356 249.1076706 -144.75585938 249.09765625 C-152.50397759 249.07645466 -160.25196612 249.04249722 -168 249 C-170.69289519 244.06650467 -171.36150106 241.55073509 -170 236 C-169.34 235.01 -168.68 234.02 -168 233 C-163.65543586 233.50518188 -159.55179688 234.35582374 -155.3125 235.4375 C-129.80369358 241.35763255 -102.91647024 239.19550887 -77 238 C-76.83636963 236.75863281 -76.83636963 236.75863281 -76.66943359 235.4921875 C-75.91233304 231.54267391 -74.66869809 227.88793113 -73.2890625 224.125 C-73.00944168 223.3486319 -72.72982086 222.57226379 -72.44172668 221.77236938 C-71.50728179 219.17994406 -70.56605198 216.59003349 -69.625 214 C-68.25101568 210.19635192 -66.88103739 206.39126741 -65.51171875 202.5859375 C-65.1496785 201.58098236 -64.78763824 200.57602722 -64.41462708 199.5406189 C-61.6560381 191.86761342 -58.95214321 184.1764275 -56.26953125 176.4765625 C-47.31586037 150.7900776 -38.21835322 125.21381391 -28 100 C-27.73401001 99.34358521 -27.46802002 98.68717041 -27.19396973 98.01086426 C-21.60062318 84.23031492 -15.85496926 70.51326414 -9.94018555 56.86743164 C-7.52382617 51.28456479 -5.23390696 45.65829026 -3 40 C-3.77085937 39.72414062 -4.54171875 39.44828125 -5.3359375 39.1640625 C-10.15672782 37.05761746 -12.76349185 32.99732146 -14.8125 28.3125 C-17.18473136 21.11353199 -16.99059944 14.36126919 -13.75 7.5 C-10.4077726 1.14564173 -7.27725888 -0.7495889 0 0 Z M21 28 C21.65585189 31.60992379 21.65585189 31.60992379 23 35 C23.67518899 42.80325561 24.14531556 50.39919871 19.67578125 57.16015625 C17.23776763 59.83685651 14.45075536 61.56867698 11.3828125 63.45703125 C0.45664666 70.53217143 -5.04940742 81.84950497 -11 93 C-11.45713379 93.84320801 -11.91426758 94.68641602 -12.38525391 95.55517578 C-31.37957032 130.87053445 -44.64338044 169.45375374 -58.81054688 206.86505127 C-60.06636468 210.1749122 -61.33005788 213.48171248 -62.59375 216.78857422 C-63.42739104 218.98263051 -64.26073423 221.17679999 -65.09375 223.37109375 C-65.48639038 224.39445328 -65.87903076 225.41781281 -66.28356934 226.47218323 C-66.6405188 227.41649704 -66.99746826 228.36081085 -67.36523438 229.33374023 C-67.68182007 230.16477768 -67.99840576 230.99581512 -68.32458496 231.85203552 C-69.14998211 234.10169989 -69.14998211 234.10169989 -69 237 C-32.2071468 233.6172691 4.44186018 224.68684743 38 209 C38.70640625 208.67290039 39.4128125 208.34580078 40.140625 208.00878906 C65.84382014 195.98973112 87.44358715 178.90377218 98 152 C101.6563654 141.87051362 102.16022306 132.51444093 102.125 121.8125 C102.12886719 120.65685547 102.13273438 119.50121094 102.13671875 118.31054688 C102.12451893 107.44660649 101.67026418 97.00358481 98.75 86.5 C98.52675049 85.68176758 98.30350098 84.86353516 98.07348633 84.02050781 C96.22245286 77.4283563 93.99095695 71.16935806 91 65 C90.71785645 64.4126709 90.43571289 63.8253418 90.14501953 63.22021484 C82.56218796 47.63306027 72.1862851 33.11956815 55.79296875 26.06640625 C44.49500779 22.88994555 32.00483102 24.30975726 21 28 Z " fill="#F8F8F8" transform="translate(488,166)"/>
<path d="M0 0 C4.23257756 1.05814439 5.57815554 3.22102664 8 6.75 C10.17089933 13.26269799 9.22117447 18.17378538 6.36328125 24.18359375 C4.48797263 26.33831798 2.75052649 26.29199604 0 26.75 C1.80435087 54.99217442 1.80435087 54.99217442 7 82.75 C7.17756836 83.47590332 7.35513672 84.20180664 7.53808594 84.94970703 C10.28371988 96.02767927 14.62741764 105.71293715 20 115.75 C22.49901539 120.44701301 23.59906979 123.35837185 23 128.75 C21.5 131.1875 21.5 131.1875 20 132.75 C17.64802273 132.37863517 16.35139311 132.1546009 14.76171875 130.32421875 C14.40722656 129.70160156 14.05273438 129.07898438 13.6875 128.4375 C13.26210938 127.71304688 12.83671875 126.98859375 12.3984375 126.2421875 C11.42060256 124.49956545 10.44698509 122.75457316 9.4765625 121.0078125 C4.96105906 113.0155834 -0.21633299 105.84380233 -6 98.75 C-6.4444043 98.20118164 -6.88880859 97.65236328 -7.34667969 97.08691406 C-31.79762957 66.18163605 -31.79762957 66.18163605 -65.1171875 48.5078125 C-66.74610555 48.55512547 -68.37356851 48.64834803 -70 48.75 C-72.61593153 46.91884793 -72.96989455 45.84031634 -74 42.75 C-74.14252401 41.10823305 -74.22026755 39.46017345 -74.25 37.8125 C-74.28867187 36.53052734 -74.28867187 36.53052734 -74.328125 35.22265625 C-73.93276477 32.24333452 -73.05995759 30.90828493 -71 28.75 C-68.5625 28.25 -68.5625 28.25 -66 28.75 C-63.5918194 30.66237871 -62.18999965 32.39308478 -60.74609375 35.10546875 C-58.62182846 38.32275645 -56.28851537 40.08843133 -53.1875 42.375 C-52.01384845 43.25457559 -50.84068796 44.13480673 -49.66796875 45.015625 C-49.06259277 45.46615234 -48.4572168 45.91667969 -47.83349609 46.38085938 C-31.16830949 58.8253822 -16.60701632 72.97181799 -2 87.75 C-2.1139209 87.10417969 -2.2278418 86.45835937 -2.34521484 85.79296875 C-10.34524487 39.24155024 -10.34524487 39.24155024 -9 16.75 C-8.96712891 15.17025391 -8.96712891 15.17025391 -8.93359375 13.55859375 C-8.7477776 9.44066821 -8.23899894 6.51587673 -5.8125 3.125 C-3 0.75 -3 0.75 0 0 Z " fill="#F8F8F8" transform="translate(614,379.25)"/>
<path d="M0 0 C3.18851154 0.75916941 4.72470639 2.17161044 6.67578125 4.78125 C8.36705759 8.06636289 8.27427464 11.04677532 7.625 14.625 C6.2453885 18.30396401 4.30721278 21.03849213 1.875 24.0625 C-8.44632386 37.61241531 -14.0431433 56.65964199 -18.375 72.9375 C-20.20303736 79.04974826 -23.1424236 83.84972058 -28.375 87.625 C-32.125 88.125 -32.125 88.125 -35.375 86.625 C-39.57383922 81.56094542 -40.81113673 76.05801677 -40.375 69.625 C-39.0625 66.375 -39.0625 66.375 -37.375 63.625 C-36.7871875 62.6659375 -36.7871875 62.6659375 -36.1875 61.6875 C-33.03103593 59.83715899 -29.87335847 60.99414847 -26.375 61.625 C-26.21499512 61.1000293 -26.05499023 60.57505859 -25.89013672 60.03417969 C-23.89160008 53.74050623 -21.29626244 47.84985287 -18.5 41.875 C-13.29187792 30.54976004 -8.49438997 19.72621094 -6.1484375 7.40234375 C-5.090538 3.60352282 -3.94615401 1.03846158 0 0 Z " fill="#F7F7F7" transform="translate(631.375,78.375)"/>
<path d="M0 0 C3.060618 3.30224574 3.9315148 5.39341681 4.4375 9.875 C4.29082989 13.00449177 3.73203856 14.65475154 2.49316406 17.68188477 C0.72180855 22.25233864 0.59740366 26.35680398 0.671875 31.21484375 C0.67374817 32.0700209 0.67562134 32.92519806 0.67755127 33.80628967 C0.68423399 35.60389135 0.69807242 37.40147944 0.71875 39.19897461 C0.74987345 41.92640992 0.75972803 44.65326401 0.765625 47.38085938 C0.77479898 49.13802776 0.78517601 50.89519036 0.796875 52.65234375 C0.80112488 53.45574692 0.80537476 54.25915009 0.80975342 55.0868988 C0.86804597 59.78504008 1.20446691 64.37266024 1.76895142 69.03678894 C2.20596874 72.75010857 2.26474103 76.45274824 2.3125 80.1875 C2.34150391 80.95513672 2.37050781 81.72277344 2.40039062 82.51367188 C2.45971362 87.83905113 1.46783442 90.73648655 -2 95 C-3 96 -3 96 -5.8125 96.3125 C-9 96 -9 96 -11.25 94.25 C-15.49518648 88.7919031 -15.82804418 83.78207612 -15 77 C-13.125 73.625 -13.125 73.625 -11 71 C-8.31577112 66.1423207 -8.71158264 61.09114975 -8.734375 55.6953125 C-8.73150482 54.19930008 -8.73150482 54.19930008 -8.72857666 52.67306519 C-8.72721787 50.56670885 -8.73089294 48.46034407 -8.73925781 46.35400391 C-8.74993892 43.14336135 -8.73936364 39.9332812 -8.7265625 36.72265625 C-8.72788459 34.67187377 -8.73044801 32.62109164 -8.734375 30.5703125 C-8.72830231 29.13874313 -8.72830231 29.13874313 -8.72210693 27.67825317 C-8.75907121 22.37612398 -9.30996235 18.0260608 -11 13 C-11.530925 9.01461491 -11.35796957 5.76475317 -9.625 2.0625 C-6.67761723 -1.6784089 -4.40158071 -1.32047421 0 0 Z " fill="#F6F6F6" transform="translate(557,60)"/>
<path d="M0 0 C3.66149594 0.07959774 5.48941334 0.57221117 8.3125 2.9375 C10.02963399 6.0537802 10.14683276 7.08155529 10.2265625 10.48046875 C10.79746966 17.02778178 13.72662736 21.82540096 17.0625 27.375 C17.65377686 28.38361084 18.24505371 29.39222168 18.85424805 30.43139648 C20.54843874 33.3008929 22.26923478 36.15245905 24 39 C24.41830078 39.7017334 24.83660156 40.4034668 25.26757812 41.12646484 C28.89725048 47.1861996 32.33084676 51.97649763 38.3359375 55.81640625 C40 57 40 57 42 60 C42.64038938 65.57734467 43.32223906 71.90187899 40.0625 76.75 C37.09836066 79.98360656 37.09836066 79.98360656 34.75 80.375 C30.83917737 79.84170601 29.48083857 77.96322385 27 75 C26 72 26 72 26.03515625 69.8984375 C26.13690653 60.50833999 21.27987474 53.92110311 16.43017578 46.28320312 C14.02944075 42.45055136 11.77324037 38.53411578 9.5 34.625 C5.9874084 27.71874537 5.9874084 27.71874537 0.5625 22.625 C-2.5466394 20.65335062 -3.59274369 19.40704159 -5 16 C-5.58446479 11.59649812 -5.5216373 8.11440696 -3.625 4.0625 C-2 2 -2 2 0 0 Z " fill="#F7F7F7" transform="translate(451,67)"/>
<path d="M0 0 C4.40032749 0.11957412 6.85350895 1.5188598 10.25 4.375 C16.09400044 10.70600048 16.75135897 16.44364633 16.63671875 24.84765625 C15.99326317 30.71675112 13.76072404 35.2086894 9.28515625 39.0703125 C5.99951397 41.17665515 4.06528599 41.08632451 0.25 40.375 C-4.05049031 36.70744476 -8.3351018 31.8531377 -9.0246582 26.07250977 C-9.05292885 23.36037759 -9.07174438 20.64980042 -9.0625 17.9375 C-9.07861328 16.99583984 -9.09472656 16.05417969 -9.11132812 15.08398438 C-9.11488883 10.03846586 -9.0772232 6.44700309 -5.75 2.375 C-3.75 0.375 -3.75 0.375 0 0 Z " fill="#F8F8F8" transform="translate(515.75,273.625)"/>
</svg>
