<svg xmlns="http://www.w3.org/2000/svg" width="768" height="123.59471428398687" viewBox="0 0 1110.469970703125 178.7086181640625" version="1.1">
<g transform="translate(-52.72611999511719,-518.1126098632812)"><path d="M 723.542 539.466 C 718.015 540.949, 715.543 543.383, 714.030 548.830 C 711.812 556.817, 713.742 563.485, 719.786 568.712 L 723.500 571.925 719.950 571.962 C 717.997 571.983, 715.890 572.510, 715.266 573.134 C 714.421 573.979, 713.352 573.413, 711.066 570.911 C 709.380 569.065, 708 566.949, 708 566.210 C 708 565.415, 707.284 565.059, 706.250 565.340 C 695.467 568.263, 689.668 570.484, 685.342 573.349 L 680.184 576.764 675.884 572.382 L 671.584 568 661.292 568 L 651 568 651 589.452 L 651 610.905 646 605.905 C 642.258 602.163, 641 600.162, 641 597.952 C 641 595.703, 641.459 595, 642.929 595 C 644.975 595, 644.784 595.648, 648.517 576 C 649.405 571.325, 650.378 566.647, 650.680 565.604 C 651.128 564.053, 650.830 563.811, 649.045 564.278 C 647.326 564.728, 645.604 563.557, 640.918 558.754 C 636.987 554.724, 635.152 552.098, 635.499 551.002 C 636.210 548.763, 631.650 547.415, 616.500 545.386 C 596.254 542.673, 574.092 545.201, 563.586 551.421 C 557.827 554.831, 551.583 561.596, 548.511 567.754 C 544.286 576.225, 542.746 585.639, 542.746 603 C 542.746 630.953, 547.842 644.603, 561.883 654.263 C 567.861 658.376, 570 660.243, 570 661.345 C 570 661.840, 569.212 661.649, 568.250 660.920 C 567.288 660.191, 568.233 661.439, 570.352 663.694 C 579.146 673.052, 590.013 676.373, 612 676.422 C 625.598 676.452, 628.815 676.124, 638.217 673.755 C 653.561 669.889, 655.995 668.732, 656.020 665.301 C 656.040 662.581, 656.202 662.667, 661.605 668.250 L 667.169 674 686.085 674 L 705 674 705 649.023 C 705 624.219, 705.016 624.036, 707.250 622.591 C 708.487 621.790, 710.737 620.831, 712.250 620.459 L 715 619.783 715 639.392 L 715 659 717.250 659.093 C 718.487 659.144, 721.300 659.121, 723.500 659.043 C 727.174 658.912, 728.028 659.434, 733.971 665.450 L 740.442 672 735.804 672 C 733.030 672, 730.964 671.498, 730.662 670.750 C 730.385 670.063, 730.122 670.513, 730.079 671.750 L 730 674 750.079 674 L 770.158 674 769.829 666.498 L 769.500 658.995 772.262 658.998 C 774.317 658.999, 776.622 660.601, 781.262 665.250 C 787.397 671.397, 787.455 671.505, 784.750 671.816 C 783.237 671.990, 782 672.553, 782 673.066 C 782 673.613, 790.092 674, 801.500 674 L 821 674 821 666.500 L 821 659 825.420 659 C 829.508 659, 830.311 659.470, 836.099 665.250 L 842.359 671.500 837.679 671.805 C 835.106 671.972, 833 672.535, 833 673.055 C 833 673.617, 841.106 674, 853 674 L 873 674 873 660.067 L 873 646.135 885.329 658.544 C 894.483 667.758, 899.062 671.597, 903.109 673.450 C 913.984 678.428, 931.153 677.755, 941.939 671.927 L 947.378 668.988 949.994 671.494 C 952.452 673.849, 953.252 674, 963.305 674 L 974 674 974 659.021 L 974 644.042 979.252 649.271 C 982.140 652.147, 986.200 655.765, 988.274 657.310 C 990.347 658.856, 991.815 660.491, 991.534 660.944 C 990.710 662.278, 999.759 670.006, 1004.710 672.196 C 1017.628 677.910, 1038.932 678.354, 1062.135 673.393 C 1072.439 671.190, 1072.326 671.293, 1071.208 665.147 C 1070.694 662.316, 1070.473 660, 1070.717 660 C 1071.679 660, 1083 671.907, 1083 672.920 C 1083 673.657, 1089.346 674, 1103 674 L 1123 674 1123 648.669 C 1123 623.392, 1123.005 623.336, 1125.250 622.239 C 1128.295 620.751, 1133.596 619.280, 1138.848 618.465 L 1143.196 617.791 1142.628 613.646 C 1142.316 611.366, 1141.757 603.048, 1141.385 595.163 C 1140.828 583.328, 1140.430 580.721, 1139.105 580.222 C 1136.993 579.427, 1126 568.453, 1126 567.139 C 1126 566.577, 1125.629 565.889, 1125.175 565.608 C 1123.543 564.600, 1112.353 568.228, 1105.086 572.122 L 1097.672 576.094 1093.548 572.047 L 1089.424 568 1078.712 568 L 1068 568 1068 578.500 C 1068 584.275, 1067.639 589, 1067.197 589 C 1066.755 589, 1062.443 584.951, 1057.613 580.003 C 1049.468 571.658, 1048.313 570.843, 1041.666 568.753 C 1035.406 566.785, 1032.350 566.500, 1017.500 566.500 C 1003.431 566.500, 999.552 566.826, 995 568.391 C 987.681 570.908, 979.957 576.104, 976.672 580.721 L 974 584.476 974 569.738 C 974 561.434, 973.598 555, 973.080 555 C 972.013 555, 960.449 543.624, 959.142 541.290 C 958.347 539.869, 956.438 539.851, 939.381 541.108 L 920.500 542.500 920.221 555.135 L 919.942 567.770 906.721 568.272 C 899.449 568.548, 891.845 569.287, 889.823 569.914 C 881.907 572.368, 875.451 578.265, 869.442 588.531 C 868.505 590.131, 867.163 589.117, 857.814 579.745 C 845.660 567.561, 842.354 566, 828.713 566 C 819.147 566, 810.937 567.999, 801.981 572.510 L 795.289 575.880 791.441 571.940 C 787.626 568.033, 787.530 568, 779.955 568 L 772.317 568 771.143 564.082 C 770.293 561.246, 767.206 557.401, 759.966 550.161 C 751.034 541.229, 749.424 540.042, 744.932 539.079 C 738.314 537.660, 729.690 537.816, 723.542 539.466 M 723.500 542.345 C 717.052 544.264, 714.200 552.537, 717.108 560.881 C 718.707 565.468, 722.939 567.295, 733 567.744 C 748.262 568.425, 753.997 564.808, 753.997 554.500 C 753.997 544.630, 749.049 541.154, 735 541.154 C 730.875 541.154, 725.700 541.690, 723.500 542.345 M 943.500 543.585 C 942.400 543.757, 937.112 544.188, 931.750 544.542 L 922 545.187 922 557.984 L 922 570.782 907.250 571.167 C 892.647 571.548, 892.436 571.586, 886.060 575.017 C 875.666 580.608, 870.792 589.179, 868.998 605.020 C 866.848 623.998, 872.424 644.509, 881.645 651.543 C 889.021 657.169, 893.582 658.469, 906 658.485 C 915.905 658.498, 918.192 658.181, 922.488 656.201 C 925.231 654.937, 928.500 652.940, 929.752 651.763 L 932.030 649.623 935.807 653.312 C 939.540 656.956, 939.681 657, 947.792 657 L 956 657 956 600 L 956 543 950.750 543.136 C 947.862 543.211, 944.600 543.413, 943.500 543.585 M 114.539 545.112 C 101.236 547.050, 92.744 550.571, 86.309 556.816 C 76.141 566.684, 72.781 577.986, 72.727 602.500 C 72.686 621.424, 74.078 630.274, 78.455 638.912 C 81.600 645.117, 87.125 651.422, 92.257 654.662 C 97.130 657.739, 100 660.215, 100 661.345 C 100 661.840, 99.213 661.649, 98.250 660.920 C 97.287 660.191, 98.233 661.439, 100.352 663.694 C 109.146 673.052, 120.013 676.373, 142 676.422 C 155.598 676.452, 158.815 676.124, 168.217 673.755 C 174.111 672.270, 180.524 670.390, 182.467 669.578 C 185.899 668.144, 186 667.946, 186 662.645 C 186 657.690, 186.183 657.235, 187.989 657.707 C 189.083 657.993, 189.750 658.595, 189.472 659.045 C 189.195 659.494, 189.494 660.187, 190.138 660.585 C 190.869 661.037, 191.041 660.876, 190.595 660.155 C 189.433 658.274, 191.520 658.835, 194.549 661.217 C 197.888 663.843, 204 669.869, 204 670.533 C 204 671.909, 201.651 670.497, 196.871 666.250 L 191.526 661.500 194.819 665.715 C 196.994 668.499, 200.378 671.046, 204.784 673.215 C 211.044 676.297, 212.104 676.500, 221.978 676.500 C 234.037 676.500, 240.016 674.873, 248.204 669.363 L 253.333 665.911 257.455 669.955 L 261.576 674 272.288 674 L 283 674 283 667.700 C 283 664.133, 282.479 660.879, 281.800 660.200 C 280.867 659.267, 280.929 659, 282.079 659 C 282.892 659, 286.457 661.925, 290 665.500 C 294.282 669.820, 295.865 672, 294.721 672 C 293.775 672, 293 672.450, 293 673 C 293 673.633, 300.333 674, 313 674 L 333 674 333 668.434 C 333 665.373, 332.534 661.998, 331.965 660.934 C 331.050 659.225, 331.273 659, 333.885 659 C 336.175 659, 338.248 660.406, 343.101 665.250 L 349.363 671.500 346.036 671.824 C 344.050 672.018, 342.371 671.615, 341.870 670.824 C 341.273 669.882, 341.026 670.149, 341.015 671.750 L 341 674 361 674 L 381 674 381 669.500 C 381 667.025, 381.292 665, 381.649 665 C 382.705 665, 389 671.808, 389 672.950 C 389 673.648, 395.704 674, 409 674 L 429 674 429 659.874 L 429 645.748 433.701 650.124 C 438.418 654.515, 444.957 661.062, 449.869 666.313 C 456.636 673.548, 467.114 676.445, 486.500 676.441 C 500.683 676.439, 508.919 675.399, 522.103 671.946 L 525.706 671.002 524.427 663.251 C 523.723 658.988, 522.623 652.237, 521.983 648.250 C 520.882 641.392, 519.539 639.008, 518.823 642.640 C 518.585 643.848, 516.981 642.785, 512.750 638.619 C 509.587 635.505, 507 632.292, 507 631.478 C 507 630.604, 508.590 631.636, 510.883 633.999 C 513.019 636.199, 515.563 638, 516.538 638 C 519.288 638, 525.574 630.698, 527.376 625.410 C 529.437 619.362, 529.483 606.989, 527.470 600.210 C 526.169 595.830, 524.257 593.350, 514.720 583.674 C 508.549 577.413, 501.999 571.519, 500.164 570.575 C 494.547 567.686, 484.092 566.036, 471.299 566.017 C 447.833 565.984, 435.334 571.352, 427.802 584.696 L 424.803 590.012 420.651 586.827 L 416.500 583.643 420.250 587.614 C 425.628 593.308, 424.896 595.281, 419.380 589.958 C 416.839 587.506, 413.699 583.148, 412.403 580.273 C 407.803 570.072, 396.700 565.362, 379.239 566.203 C 371.425 566.579, 368.206 567.217, 363.692 569.283 L 358 571.889 352.337 569.297 C 347.970 567.297, 344.538 566.593, 337.336 566.216 C 325.655 565.605, 317.633 567.224, 310.730 571.588 L 305.500 574.894 301.958 571.447 L 298.416 568 288.237 568 L 278.058 568 277.779 581.128 L 277.500 594.256 267 583.822 C 250.275 567.202, 248.431 566.500, 221.500 566.500 C 203.175 566.500, 191.823 567.836, 183.610 570.958 L 181.284 571.843 183.696 586.146 C 185.023 594.013, 186.647 600.791, 187.305 601.208 C 187.962 601.626, 188.950 602.171, 189.500 602.419 C 191.049 603.120, 186.092 606.972, 184.451 606.343 C 183.474 605.968, 183 606.455, 183 607.834 C 183 611.576, 181.183 611.088, 176.066 605.971 C 172.266 602.171, 171 600.167, 171 597.952 C 171 595.737, 171.466 595, 172.866 595 C 174.471 595, 175.120 593.004, 177.501 580.750 C 179.024 572.913, 180.322 566.050, 180.385 565.500 C 180.448 564.950, 179.673 564.569, 178.661 564.654 C 176.307 564.850, 164.742 553.115, 165.456 551.254 C 167.247 546.587, 132.875 542.441, 114.539 545.112 M 110.683 548.520 C 91.909 552.086, 82.200 561.018, 77.264 579.265 C 74.872 588.108, 74.913 617.650, 77.331 627.404 C 81.766 645.292, 92.437 654.918, 111.213 657.965 C 125.139 660.224, 144.817 658.518, 160.129 653.722 L 167.500 651.414 167.500 622.957 L 167.500 594.500 147.250 594.229 L 127 593.959 127 606.979 L 127 620 131 620 L 135 620 135 624.443 C 135 630.871, 132.948 632, 121.261 632 L 111.967 632 112.233 605.857 L 112.500 579.715 115.322 577.607 C 117.870 575.704, 119.471 575.500, 131.822 575.500 C 139.345 575.500, 148.200 575.846, 151.500 576.270 L 157.500 577.040 159.857 564.460 C 161.154 557.542, 161.947 551.613, 161.619 551.286 C 158.435 548.102, 123.014 546.178, 110.683 548.520 M 580.682 548.523 C 562.175 552.031, 551.549 561.840, 547.563 579.096 C 545.357 588.646, 544.630 605.112, 545.911 616.500 C 547.876 633.972, 552.265 643.405, 561.821 650.694 C 574.401 660.289, 604.840 661.641, 630.113 653.728 L 637.500 651.415 637.765 622.707 L 638.031 594 617.515 594 L 597 594 597 607 L 597 620 601 620 L 605 620 605 624.443 C 605 630.871, 602.948 632, 591.261 632 L 581.967 632 582.233 605.857 L 582.500 579.715 585.322 577.607 C 587.881 575.696, 589.462 575.500, 602.322 575.500 C 610.120 575.500, 619.001 575.859, 622.057 576.298 L 627.615 577.096 629.988 564.562 C 631.294 557.668, 632.061 551.727, 631.693 551.360 C 628.415 548.081, 593.312 546.129, 580.682 548.523 M 757 554.937 C 757 558.510, 757.598 559.607, 761.679 563.517 C 767.017 568.631, 769 569.147, 769 565.420 C 769 563.600, 767.233 561.073, 763 556.840 L 757 550.840 757 554.937 M 959 556.718 C 959 560.219, 959.708 561.413, 965.005 566.844 C 968.308 570.230, 971.233 573, 971.505 573 C 971.777 573, 972 571.398, 972 569.439 C 972 566.396, 971.054 564.923, 965.500 559.314 L 959 552.750 959 556.718 M 162.569 565.482 C 161.804 569.560, 161.931 569.780, 169.286 577.169 C 172.073 579.969, 174.231 581.459, 174.452 580.738 C 176.232 574.947, 176.062 574.503, 169.600 568.099 L 163.258 561.813 162.569 565.482 M 632.569 565.482 C 632.109 567.935, 632.315 569.684, 633.190 570.756 C 635.544 573.640, 644.208 582.127, 644.474 581.810 C 644.618 581.639, 645.021 579.913, 645.371 577.974 C 645.969 574.656, 645.632 574.077, 639.632 568.131 L 633.258 561.813 632.569 565.482 M 210.500 568.976 C 205.550 569.364, 197.787 570.493, 193.250 571.485 C 186.443 572.974, 185 573.622, 185 575.190 C 185 576.741, 188.086 597.094, 188.408 597.668 C 188.460 597.760, 190.837 597.230, 193.690 596.490 C 201.040 594.584, 221.571 592.709, 226.690 593.476 C 230.646 594.069, 231 594.364, 231 597.061 C 231 599.999, 230.997 600, 224.750 600.007 C 214.660 600.018, 200.839 602.511, 194.101 605.535 C 182.572 610.709, 177.367 619.554, 177.743 633.333 C 178.114 646.927, 185.001 655.404, 197.844 658.073 C 209.398 660.474, 226.335 656.863, 234.741 650.205 L 238.668 647.095 243.547 652.047 L 248.425 657 256.712 657 L 265 657 265 624.943 C 265 604.873, 264.587 591.246, 263.896 588.501 C 262.554 583.173, 257.161 576.633, 251.891 573.944 C 243.186 569.504, 227.614 567.634, 210.500 568.976 M 326.351 569.058 C 320.051 569.876, 313.865 572.488, 308.433 576.624 L 305.365 578.959 301.480 574.979 L 297.594 571 289.297 571 L 281 571 281 614 L 281 657 298 657 L 315 657 315 629 C 315 602.333, 315.095 600.905, 317 599 C 318.100 597.900, 319.844 597, 320.875 597 C 321.906 597, 324.156 596.719, 325.875 596.375 L 329 595.750 329 626.375 L 329 657 346 657 L 363 657 363 629 C 363 602.333, 363.095 600.905, 365 599 C 366.100 597.900, 367.844 597, 368.875 597 C 369.906 597, 372.156 596.719, 373.875 596.375 L 377 595.750 377 626.375 L 377 657 394.034 657 L 411.069 657 410.784 619.250 L 410.500 581.500 408 578.148 C 400.619 568.252, 378.708 565.531, 363.034 572.565 L 357.411 575.089 352.955 572.624 C 348.973 570.420, 345.959 569.723, 335.500 568.586 C 333.850 568.406, 329.733 568.619, 326.351 569.058 M 460.182 569.029 C 443.943 570.755, 432.657 578.310, 428.065 590.531 C 424.646 599.630, 423.365 612.174, 424.742 623.082 C 428.768 654.973, 449.864 664.396, 498.339 655.955 C 507.944 654.282, 507.605 654.987, 505.366 641.345 C 503.885 632.325, 503.073 629.537, 501.961 629.654 C 501.157 629.738, 497.125 630.561, 493 631.482 C 488.875 632.403, 479.988 633.412, 473.250 633.724 L 461 634.291 461 630.780 L 461 627.270 473.250 626.707 C 493.662 625.770, 503.141 621.788, 508.295 611.985 C 511.025 606.794, 511.158 605.964, 510.789 596.500 C 510.232 582.235, 506.464 575.814, 496.452 572.068 C 488.823 569.213, 471.841 567.791, 460.182 569.029 M 823 568.977 C 814.531 570.143, 809.116 571.863, 801.694 575.746 L 794.888 579.307 790.656 575.153 L 786.424 571 777.701 571 L 768.979 571 769.239 613.750 L 769.500 656.500 786.500 656.500 L 803.500 656.500 803.765 627.777 C 804.070 594.827, 803.150 597.553, 814.354 596.405 L 821 595.724 821 626.362 L 821 657 838 657 L 855 657 855 620.468 C 855 591.723, 854.707 583.234, 853.624 580.643 C 849.983 571.929, 837.131 567.033, 823 568.977 M 1005.500 569.097 C 994.741 570.240, 984.456 575.213, 979.542 581.649 C 973.585 589.451, 971.753 595.784, 971.222 610.410 C 970.546 629.051, 973.126 638.842, 980.954 647.334 C 989.071 656.140, 1001.642 659.588, 1022 658.593 C 1032.230 658.094, 1052.395 655.028, 1053.498 653.805 C 1053.813 653.456, 1050.094 629.761, 1049.655 629.322 C 1049.497 629.164, 1047.822 629.485, 1045.934 630.037 C 1038.989 632.064, 1024.260 633.992, 1015.687 633.996 L 1006.873 634 1007.187 630.750 L 1007.500 627.500 1019.500 626.824 C 1043.985 625.444, 1054.060 619.664, 1057.045 605.282 C 1059.337 594.244, 1055.616 579.701, 1049.366 575.269 C 1041.933 569.998, 1022.607 567.279, 1005.500 569.097 M 696 571.046 C 692.975 572.132, 688.113 574.662, 685.196 576.669 L 679.892 580.318 675.162 575.659 L 670.431 571 661.853 571 L 653.275 571 653.387 613.750 L 653.500 656.500 670.500 656.500 L 687.500 656.500 688 631.500 L 688.500 606.500 692.944 604.259 C 695.389 603.026, 699.598 601.724, 702.298 601.366 L 707.207 600.715 706.552 587.607 C 705.736 571.309, 705.314 568.990, 703.171 569.036 C 702.252 569.056, 699.025 569.961, 696 571.046 M 755 572.573 C 755 576.123, 755.661 577.217, 761 582.500 C 765.871 587.320, 767 588.043, 767 586.341 C 767 582.550, 764.220 577.571, 759.573 573.042 L 755 568.584 755 572.573 M 1112.564 571.488 C 1109.300 572.830, 1104.726 575.294, 1102.401 576.964 C 1100.076 578.634, 1097.738 580, 1097.207 580 C 1096.676 580, 1094.582 577.975, 1092.554 575.500 L 1088.866 571 1079.933 571 L 1071 571 1071 614 L 1071 657 1087.983 657 L 1104.966 657 1105.233 631.847 L 1105.500 606.695 1109.221 604.764 C 1111.268 603.703, 1115.693 602.311, 1119.056 601.672 L 1125.169 600.510 1124.621 595.505 C 1124.320 592.752, 1123.778 585.663, 1123.417 579.750 C 1122.655 567.266, 1122.717 567.314, 1112.564 571.488 M 959 574.061 C 959 577.527, 959.716 578.745, 964.847 584.006 C 968.063 587.303, 970.988 590, 971.347 590 C 971.706 590, 972 588.450, 972 586.556 C 972 583.650, 970.984 582.095, 965.500 576.611 L 959 570.111 959 574.061 M 734.500 573.037 C 727.350 574.024, 720.712 574.869, 719.750 574.916 C 718.113 574.995, 718 577.651, 718 616 L 718 657 735 657 L 752 657 752 614 L 752 571 749.750 571.121 C 748.513 571.188, 741.650 572.050, 734.500 573.037 M 708.683 575.750 C 709.012 577.969, 710.415 580.717, 712.120 582.481 L 715 585.462 715 581.654 C 715 578.779, 714.284 577.130, 712.077 574.923 C 710.469 573.315, 708.923 572, 708.640 572 C 708.357 572, 708.376 573.688, 708.683 575.750 M 1126 575.506 C 1126 578.430, 1126.970 580.005, 1131.847 585.006 C 1135.063 588.303, 1137.917 591, 1138.189 591 C 1138.461 591, 1138.392 589.084, 1138.037 586.743 C 1137.526 583.374, 1136.297 581.393, 1132.148 577.243 C 1129.264 574.359, 1126.701 572, 1126.452 572 C 1126.204 572, 1126 573.578, 1126 575.506 M 120.117 578.723 C 117.874 579.147, 118.077 579.520, 123.586 585.087 C 128.236 589.786, 130.077 591, 132.552 591 C 134.265 591, 135.979 590.688, 136.360 590.306 C 137.354 589.312, 125.867 577.973, 124.031 578.136 C 123.189 578.211, 121.428 578.475, 120.117 578.723 M 136 578.609 C 136 578.943, 138.364 581.581, 141.253 584.470 C 145.298 588.515, 147.368 589.824, 150.253 590.161 C 152.314 590.402, 154 590.395, 154 590.147 C 154 589.898, 151.303 587.063, 148.006 583.847 C 143.389 579.344, 141.320 578, 139.006 578 C 137.353 578, 136 578.274, 136 578.609 M 590.117 578.723 C 587.874 579.147, 588.077 579.520, 593.586 585.087 C 598.236 589.786, 600.077 591, 602.552 591 C 604.265 591, 605.979 590.688, 606.360 590.306 C 607.354 589.312, 595.867 577.973, 594.031 578.136 C 593.189 578.211, 591.428 578.475, 590.117 578.723 M 606 578.452 C 606 578.701, 608.350 581.255, 611.223 584.127 C 614.965 587.870, 617.516 589.546, 620.223 590.041 C 622.300 590.421, 624 590.410, 624 590.018 C 624 589.626, 621.333 586.761, 618.074 583.652 C 613.504 579.293, 611.445 578, 609.074 578 C 607.383 578, 606 578.204, 606 578.452 M 156.602 579.780 L 152.705 580.138 158.068 585.569 C 162.257 589.810, 164.107 591, 166.516 591 C 168.212 591, 170.140 591.540, 170.800 592.200 C 171.733 593.133, 172 593.111, 172 592.100 C 172 591.386, 169.412 588.241, 166.250 585.111 C 160.953 579.870, 160.193 579.450, 156.602 579.780 M 626.602 579.802 L 622.705 580.138 628.068 585.569 C 632.257 589.810, 634.107 591, 636.516 591 C 638.212 591, 640.089 591.489, 640.687 592.087 C 641.314 592.714, 642.014 592.787, 642.339 592.261 C 642.650 591.758, 640.113 588.673, 636.702 585.406 C 631.005 579.949, 630.183 579.493, 626.602 579.802 M 1058.491 584 C 1058.880 585.375, 1061.179 588.519, 1063.599 590.987 C 1067.207 594.665, 1068 595.109, 1068 593.449 C 1068 592.328, 1065.720 589.210, 1062.891 586.462 C 1058.605 582.298, 1057.897 581.902, 1058.491 584 M 512.468 584.779 C 513.196 587.199, 522.886 597.447, 523.688 596.645 C 524.564 595.770, 522.186 592.535, 516.967 587.500 C 513.029 583.702, 511.948 583.048, 512.468 584.779 M 857.802 586.426 C 858.077 588.783, 859.575 591.286, 862.601 594.444 C 865.020 596.969, 867 598.389, 867 597.599 C 867 596.810, 867.243 595.531, 867.540 594.758 C 867.856 593.932, 865.978 591.217, 862.984 588.176 C 860.182 585.329, 857.780 583, 857.645 583 C 857.511 583, 857.582 584.542, 857.802 586.426 M 266.922 589.155 C 267.412 591.327, 269.609 594.513, 272.850 597.755 C 277.871 602.776, 278 602.837, 278 600.171 C 278 598.160, 276.433 595.887, 272.072 591.571 L 266.144 585.705 266.922 589.155 M 755 590.281 C 755 592.965, 756.092 594.643, 761 599.500 L 767 605.437 767 601.610 C 767 598.313, 766.252 597.035, 761.609 592.391 C 758.643 589.426, 755.943 587, 755.609 587 C 755.274 587, 755 588.477, 755 590.281 M 959 591.030 C 959 594.314, 959.723 595.720, 963.375 599.530 C 966.890 603.199, 967.872 603.776, 968.375 602.466 C 969.704 599.002, 968.827 596.922, 964 592.095 L 959 587.095 959 591.030 M 115 591.501 C 115 594.305, 115.847 595.826, 119.250 599.138 L 123.500 603.273 123.814 599.582 C 124.083 596.416, 123.566 595.331, 120.181 591.946 C 118.011 589.776, 115.957 588, 115.618 588 C 115.278 588, 115 589.575, 115 591.501 M 585 591.501 C 585 594.305, 585.847 595.826, 589.250 599.138 L 593.500 603.273 593.814 599.582 C 594.083 596.416, 593.566 595.331, 590.181 591.946 C 588.011 589.776, 585.957 588, 585.618 588 C 585.278 588, 585 589.575, 585 591.501 M 1127 592.201 C 1127 595.323, 1127.869 596.709, 1133.123 601.963 C 1136.491 605.331, 1139.402 607.931, 1139.593 607.741 C 1139.783 607.551, 1139.676 605.779, 1139.356 603.804 C 1138.926 601.159, 1137.222 598.678, 1132.886 594.388 L 1127 588.563 1127 592.201 M 710 593.326 C 710 595.580, 710.805 597.408, 712.500 599 L 715 601.349 715 597.863 C 715 595.737, 714.204 593.523, 712.961 592.189 C 710.270 589.300, 710 589.403, 710 593.326 M 465.028 594.113 C 461.595 595.483, 461.033 596.713, 461.015 602.894 L 461 608.289 468.743 607.703 C 478.162 606.991, 480 605.388, 480 597.889 L 480 593 473.750 593.063 C 470.313 593.098, 466.388 593.571, 465.028 594.113 M 909.028 594.113 C 907.669 594.656, 906.213 595.640, 905.794 596.300 C 905.374 596.960, 905.024 605.763, 905.015 615.863 L 905 634.226 911.877 633.837 C 922.311 633.248, 922 633.921, 922 611.878 L 922 593 916.750 593.063 C 913.862 593.098, 910.388 593.571, 909.028 594.113 M 1011.315 594.007 C 1008.234 595.248, 1006.839 598.391, 1007.194 603.288 L 1007.500 607.500 1014.714 607.438 C 1024.143 607.357, 1026 605.860, 1026 598.345 L 1026 593 1019.750 593.063 C 1016.313 593.098, 1012.517 593.523, 1011.315 594.007 M 414 597.601 C 414 600.825, 414.648 602.236, 417.316 604.821 C 420.909 608.304, 422 608.121, 422 604.036 C 422 602.285, 420.663 600.100, 418 597.500 L 414 593.594 414 597.601 M 212.500 597 C 212.840 597.550, 214.666 598, 216.559 598 C 218.452 598, 220 597.550, 220 597 C 220 596.450, 218.173 596, 215.941 596 C 213.490 596, 212.127 596.396, 212.500 597 M 468 596.476 C 468 596.801, 469.613 598.679, 471.583 600.650 C 475.547 604.613, 477.376 604.168, 476.828 599.372 C 476.531 596.770, 476.101 596.471, 472.250 596.193 C 469.913 596.023, 468 596.151, 468 596.476 M 911 596.792 C 911 597.227, 913.025 599.571, 915.500 602 L 920 606.416 920 602.408 C 920 600.204, 919.460 597.860, 918.800 597.200 C 917.474 595.874, 911 595.535, 911 596.792 M 1014 596.394 C 1014 597.275, 1021.262 604, 1022.214 604 C 1022.713 604, 1022.981 602.313, 1022.810 600.250 C 1022.509 596.610, 1022.375 596.491, 1018.250 596.193 C 1015.913 596.023, 1014 596.114, 1014 596.394 M 514 600.781 C 514 604.060, 514.767 605.322, 519.779 610.281 C 522.957 613.427, 525.882 616, 526.279 616 C 526.676 616, 527 614.389, 527 612.420 C 527 609.383, 526.102 607.942, 521.080 602.920 C 517.824 599.664, 514.899 597, 514.580 597 C 514.261 597, 514 598.702, 514 600.781 M 1060.811 600.496 C 1060.441 603.660, 1060.898 604.684, 1064.192 608.078 L 1068 612.002 1068 607.697 C 1068 604.119, 1067.429 602.839, 1064.619 600.115 L 1061.238 596.838 1060.811 600.496 M 196.543 598.931 C 195.530 600.569, 197.388 600.772, 201.500 599.473 L 205.500 598.210 201.309 598.105 C 199.004 598.047, 196.859 598.419, 196.543 598.931 M 815.232 601 C 815.919 602.100, 816.823 603, 817.241 603 C 817.658 603, 818 602.100, 818 601 C 818 599.664, 817.333 599, 815.992 599 C 814.233 599, 814.139 599.249, 815.232 601 M 324.638 601.500 C 324.955 602.325, 325.391 603, 325.607 603 C 325.823 603, 326 602.325, 326 601.500 C 326 600.675, 325.564 600, 325.031 600 C 324.499 600, 324.322 600.675, 324.638 601.500 M 858 603.569 C 858 606.849, 858.638 608.226, 861.399 610.902 L 864.798 614.196 865.506 610.970 C 866.138 608.097, 865.766 607.295, 862.108 603.637 L 858 599.529 858 603.569 M 366 604.347 C 366 606.859, 366.935 608.659, 369.750 611.565 L 373.500 615.437 373.818 611.587 C 374.084 608.365, 373.603 607.186, 370.872 604.368 C 369.077 602.516, 367.246 601, 366.804 601 C 366.362 601, 366 602.506, 366 604.347 M 268 606.321 C 268 608.893, 269.011 610.698, 272.483 614.321 C 274.949 616.894, 277.199 619, 277.483 619 C 277.767 619, 278 617.506, 278 615.679 C 278 613.107, 276.989 611.302, 273.517 607.679 C 271.051 605.106, 268.801 603, 268.517 603 C 268.233 603, 268 604.494, 268 606.321 M 806 606.390 C 806 609.157, 807.015 610.812, 811.521 615.390 C 814.558 618.475, 817.258 621, 817.521 621 C 817.785 621, 818 619.376, 818 617.392 C 818 614.343, 817.151 612.948, 812.521 608.392 C 809.508 605.426, 806.808 603, 806.521 603 C 806.235 603, 806 604.525, 806 606.390 M 699.858 604.669 C 698.622 604.997, 699.790 606.679, 704.578 611.467 C 709.358 616.247, 711.444 617.697, 712.970 617.298 C 716.234 616.444, 715.427 612.681, 711.001 608.121 C 707.078 604.078, 704.769 603.363, 699.858 604.669 M 755 607.391 C 755 610.185, 756.013 611.797, 760.750 616.544 L 766.500 622.305 766.813 618.607 C 767.094 615.287, 766.569 614.351, 761.672 609.454 C 758.672 606.454, 755.943 604, 755.609 604 C 755.274 604, 755 605.526, 755 607.391 M 959 608.041 C 959 611.503, 959.674 612.823, 963.477 616.808 L 967.954 621.500 967.977 617.429 C 967.997 613.951, 967.344 612.673, 963.500 608.661 L 959 603.965 959 608.041 M 1117.269 604.813 C 1116.414 605.356, 1117.945 607.486, 1122.281 611.783 L 1128.524 617.970 1132.397 616.901 L 1136.270 615.831 1130.417 609.916 C 1125.813 605.264, 1123.915 604.003, 1121.531 604.015 C 1119.864 604.024, 1117.946 604.383, 1117.269 604.813 M 115 608.617 C 115 611.557, 115.795 613.007, 119.250 616.367 L 123.500 620.500 123.814 616.696 C 124.085 613.400, 123.600 612.364, 120.181 608.946 C 118.011 606.776, 115.957 605, 115.618 605 C 115.278 605, 115 606.628, 115 608.617 M 585 608.579 C 585 611.487, 585.843 613.001, 589.500 616.658 L 594 621.158 594 616.961 C 594 613.420, 593.394 612.159, 590.118 608.882 C 587.982 606.747, 585.957 605, 585.618 605 C 585.278 605, 585 606.611, 585 608.579 M 318 609.764 C 318 613.203, 318.619 614.552, 321.533 617.467 C 323.477 619.410, 325.277 621, 325.533 621 C 325.790 621, 326 619.291, 326 617.203 C 326 614.091, 325.279 612.701, 322 609.500 L 318 605.594 318 609.764 M 690 612.179 C 690 615.335, 690.862 616.703, 696.250 622.101 L 702.500 628.363 702.826 625.016 C 703.114 622.049, 702.407 620.926, 696.576 615.094 L 690 608.519 690 612.179 M 1108 612.563 C 1108 616.125, 1108.656 617.212, 1114 622.500 L 1120 628.437 1120 624.437 C 1120 620.875, 1119.344 619.788, 1114 614.500 L 1108 608.563 1108 612.563 M 171 614.489 C 171 617.651, 173.398 622, 175.143 622 C 175.527 622, 176.135 620.660, 176.495 619.022 C 177.029 616.591, 176.649 615.579, 174.429 613.522 C 172.932 612.135, 171.549 611, 171.354 611 C 171.159 611, 171 612.570, 171 614.489 M 414 614.564 C 414 617.982, 414.627 619.195, 418.128 622.547 L 422.256 626.500 421.588 622 C 421.105 618.743, 419.964 616.538, 417.460 614.017 L 414 610.533 414 614.564 M 641 614.556 C 641 617.480, 641.890 619.016, 646 623.192 L 651 628.271 651 624.215 C 651 620.730, 650.355 619.513, 646.421 615.579 C 643.903 613.061, 641.653 611, 641.421 611 C 641.189 611, 641 612.600, 641 614.556 M 908 615.784 C 908 619.034, 908.757 620.316, 913.362 624.864 C 918.836 630.269, 920 630.298, 920 625.028 C 920 623.482, 909.847 612, 908.479 612 C 908.215 612, 908 613.703, 908 615.784 M 509.157 616.653 L 506.815 620.255 512.626 626.127 C 515.822 629.357, 518.758 632, 519.151 632 C 519.543 632, 520.857 630.605, 522.072 628.899 L 524.280 625.798 517.890 619.425 L 511.500 613.052 509.157 616.653 M 1055.250 616.964 L 1053 619.817 1059.148 625.908 C 1065.853 632.551, 1068 632.716, 1068 626.590 C 1068 624.134, 1066.928 622.369, 1063.216 618.712 C 1060.584 616.121, 1058.222 614.025, 1057.966 614.055 C 1057.710 614.086, 1056.487 615.394, 1055.250 616.964 M 858.023 620.538 C 858.003 624.101, 858.604 625.158, 863.143 629.538 C 865.972 632.267, 867.997 633.676, 867.643 632.668 C 867.290 631.661, 867 629.722, 867 628.360 C 867 626.792, 865.357 624.162, 862.523 621.192 L 858.046 616.500 858.023 620.538 M 366 621.594 C 366 624.943, 366.651 626.230, 370 629.500 L 374 633.406 374 629.406 C 374 626.057, 373.349 624.770, 370 621.500 L 366 617.594 366 621.594 M 806 622.896 C 806 626.262, 806.737 627.529, 811.521 632.390 C 814.558 635.475, 817.258 638, 817.521 638 C 817.785 638, 818 636.495, 818 634.656 C 818 631.920, 816.911 630.196, 812 625.162 L 806 619.011 806 622.896 M 216 620.694 C 213.252 621.676, 212 624.335, 212 629.191 L 212 634 219.500 634 C 229.005 634, 231 632.439, 231 625 L 231 620 224.250 620.079 C 220.537 620.122, 216.825 620.399, 216 620.694 M 268 623.788 C 268 627.009, 268.747 628.311, 273 632.500 L 278 637.425 278 633.391 C 278 629.976, 277.313 628.641, 273.517 624.679 C 271.051 622.106, 268.801 620, 268.517 620 C 268.233 620, 268 621.704, 268 623.788 M 755 624.321 C 755 626.878, 755.987 628.662, 759.289 632.071 C 766.596 639.617, 767 639.809, 767 635.732 C 767 632.817, 766.061 631.266, 761.479 626.610 C 758.442 623.525, 755.742 621, 755.479 621 C 755.215 621, 755 622.494, 755 624.321 M 115.190 625.750 C 115.483 629.296, 115.704 629.517, 119.250 629.810 C 121.313 629.981, 123 629.884, 123 629.594 C 123 628.906, 116.094 622, 115.406 622 C 115.116 622, 115.019 623.688, 115.190 625.750 M 585.190 625.750 C 585.483 629.296, 585.704 629.517, 589.250 629.810 C 591.313 629.981, 593 629.884, 593 629.594 C 593 629.304, 591.410 627.477, 589.467 625.533 C 587.523 623.590, 585.696 622, 585.406 622 C 585.116 622, 585.019 623.688, 585.190 625.750 M 959 625.384 C 959 628.686, 959.798 630.025, 964.931 635.335 C 968.193 638.710, 971.149 641.184, 971.500 640.833 C 973.155 639.178, 969.413 631.852, 964.367 626.869 L 959 621.568 959 625.384 M 128 625 C 129.100 626.100, 130 627.477, 130 628.059 C 130 628.641, 130.450 628.840, 131 628.500 C 131.550 628.160, 132 626.784, 132 625.441 C 132 623.395, 131.514 623, 129 623 L 126 623 128 625 M 222.460 626.959 C 224.586 629.136, 226.702 630.684, 227.163 630.400 C 227.623 630.115, 228 628.334, 228 626.441 C 228 623.007, 227.990 623, 223.297 623 L 218.594 623 222.460 626.959 M 597.185 624.250 C 598.046 624.938, 599.228 626.400, 599.811 627.500 C 600.834 629.431, 600.903 629.414, 601.818 627 C 603.063 623.714, 602.516 623, 598.750 623 C 596.075 623, 595.847 623.183, 597.185 624.250 M 318 627.550 C 318 630.223, 318.827 631.951, 321.351 634.550 C 323.194 636.447, 324.994 638, 325.351 638 C 325.708 638, 326 636.403, 326 634.450 C 326 631.777, 325.173 630.049, 322.649 627.450 C 320.806 625.553, 319.006 624, 318.649 624 C 318.292 624, 318 625.597, 318 627.550 M 494.058 626.396 C 491.511 627.316, 491.037 627.800, 492.234 628.260 C 494.372 629.080, 501.215 627.157, 500.467 625.946 C 499.725 624.746, 498.358 624.842, 494.058 626.396 M 690 628.976 C 690 632.381, 690.742 633.583, 696.250 639.101 L 702.500 645.362 702.804 641.790 C 703.078 638.563, 702.475 637.586, 696.554 631.665 L 690 625.111 690 628.976 M 1041.114 626.154 C 1039.063 626.744, 1038.089 627.489, 1038.644 628.044 C 1039.828 629.228, 1047.263 627.234, 1046.467 625.946 C 1045.790 624.851, 1045.622 624.858, 1041.114 626.154 M 1108 629.563 C 1108 633.125, 1108.656 634.212, 1114 639.500 L 1120 645.437 1120 641.437 C 1120 637.875, 1119.344 636.788, 1114 631.500 L 1108 625.563 1108 629.563 M 171 631.387 C 171 633.701, 171.748 635.886, 173 637.230 L 175 639.377 175 635.344 C 175 632.580, 174.370 630.740, 173 629.500 C 171.034 627.721, 171 627.753, 171 631.387 M 414 631.651 C 414 635.346, 414.608 636.391, 419.750 641.544 L 425.500 647.305 425.820 643.483 C 426.115 639.972, 425.647 639.167, 420.070 633.590 L 414 627.520 414 631.651 M 641 631.344 C 641 634.522, 641.783 635.908, 646 640.192 L 651 645.271 651 641.348 C 651 637.963, 650.314 636.749, 646 632.500 L 641 627.575 641 631.344 M 475.500 630 C 475.126 630.605, 476.509 631, 479 631 C 481.491 631, 482.874 630.605, 482.500 630 C 482.160 629.450, 480.585 629, 479 629 C 477.415 629, 475.840 629.450, 475.500 630 M 908 630 C 908 630.550, 908.477 631, 909.059 631 C 909.641 631, 909.840 630.550, 909.500 630 C 909.160 629.450, 908.684 629, 908.441 629 C 908.198 629, 908 629.450, 908 630 M 1022 630 C 1020.917 630.700, 1021.835 630.974, 1025.309 630.985 C 1028.264 630.994, 1029.880 630.614, 1029.500 630 C 1028.714 628.728, 1023.968 628.728, 1022 630 M 1053 631.069 C 1053 631.890, 1055.700 635.234, 1059 638.500 C 1063.036 642.494, 1065 643.875, 1065 642.719 C 1065 640.729, 1066.595 640.410, 1067.338 642.250 C 1067.615 642.938, 1067.878 641.550, 1067.921 639.167 L 1068 634.833 1065.250 636.857 L 1062.500 638.880 1057.750 634.228 C 1054.946 631.482, 1053 630.187, 1053 631.069 M 858 637.651 C 858 641.346, 858.608 642.391, 863.750 647.544 L 869.500 653.305 869.820 649.483 C 870.115 645.972, 869.647 645.167, 864.070 639.590 L 858 633.520 858 637.651 M 366 638.594 C 366 641.943, 366.651 643.230, 370 646.500 L 374 650.406 374 646.406 C 374 643.057, 373.349 641.770, 370 638.500 L 366 634.594 366 638.594 M 268 640.575 C 268 644.052, 268.654 645.219, 273 649.500 L 278 654.425 278 650.425 C 278 646.948, 277.346 645.781, 273 641.500 L 268 636.575 268 640.575 M 806 640.381 C 806 643.694, 806.791 645.013, 811.981 650.350 L 817.962 656.500 817.981 652.469 C 817.998 648.858, 817.375 647.818, 812 642.500 L 806 636.563 806 640.381 M 755 641.344 C 755 644.080, 756.089 645.804, 761 650.838 L 767 656.989 767 653.104 C 767 649.738, 766.263 648.471, 761.479 643.610 C 758.442 640.525, 755.742 638, 755.479 638 C 755.215 638, 755 639.505, 755 641.344 M 959 642.718 C 959 646.219, 959.708 647.413, 965.005 652.844 C 968.308 656.230, 971.233 659, 971.505 659 C 971.777 659, 972 657.398, 972 655.439 C 972 652.396, 971.054 650.923, 965.500 645.314 L 959 638.750 959 642.718 M 318 644.550 C 318 647.223, 318.827 648.951, 321.351 651.550 C 323.194 653.447, 324.994 655, 325.351 655 C 325.708 655, 326 653.440, 326 651.533 C 326 648.899, 325.152 647.219, 322.467 644.533 C 320.523 642.590, 318.723 641, 318.467 641 C 318.210 641, 318 642.597, 318 644.550 M 509 645.701 C 509 648.209, 510.223 650.063, 515.080 654.920 C 518.424 658.264, 521.259 661, 521.379 661 C 521.500 661, 521.421 659.481, 521.204 657.625 C 520.910 655.105, 519.313 652.768, 514.905 648.406 L 509 642.563 509 645.701 M 690 646.353 C 690 649.600, 690.816 651.004, 695.652 656.074 C 698.761 659.333, 701.686 662, 702.152 662 C 702.618 662, 703 660.525, 703 658.721 C 703 656.013, 701.869 654.321, 696.500 649 L 690 642.558 690 646.353 M 1055.512 646.250 C 1055.945 648.345, 1058.306 651.632, 1062.156 655.500 L 1068.128 661.500 1067.433 657.642 C 1066.916 654.779, 1065.323 652.392, 1061.258 648.392 C 1058.245 645.426, 1055.569 643, 1055.311 643 C 1055.052 643, 1055.143 644.462, 1055.512 646.250 M 1108 647.321 C 1108 649.878, 1108.987 651.662, 1112.289 655.071 C 1119.596 662.617, 1120 662.809, 1120 658.732 C 1120 655.817, 1119.061 654.266, 1114.479 649.610 C 1111.442 646.525, 1108.742 644, 1108.479 644 C 1108.215 644, 1108 645.494, 1108 647.321 M 171 648.563 C 171 652.125, 171.656 653.212, 177 658.500 L 183 664.437 183 660.437 C 183 656.875, 182.344 655.788, 177 650.500 L 171 644.563 171 648.563 M 641 648.569 C 641 652.124, 641.659 653.215, 647 658.500 C 652.739 664.180, 653 664.319, 653 661.719 C 653 660.223, 652.550 659, 652 659 C 651.450 659, 651 657.971, 651 656.712 C 651 655.291, 649.108 652.561, 646 649.500 L 641 644.575 641 648.569 M 414 649.321 C 414 651.878, 414.987 653.662, 418.289 657.071 C 425.596 664.617, 426 664.809, 426 660.732 C 426 657.817, 425.061 656.266, 420.479 651.610 C 417.442 648.525, 414.742 646, 414.479 646 C 414.215 646, 414 647.494, 414 649.321 M 236.667 651.667 C 235.405 652.928, 236.017 653.857, 242.147 659.987 C 247.729 665.569, 248.438 665.990, 249.862 664.566 C 251.286 663.143, 251.857 663.419, 256.080 667.579 C 259.802 671.245, 261.306 672.093, 263.615 671.829 L 266.500 671.500 260.262 665.250 C 254.792 659.769, 253.556 659, 250.215 659 C 247.089 659, 245.706 658.283, 242.500 655 C 238.494 650.897, 237.821 650.513, 236.667 651.667 M 857.822 656.066 C 857.459 659.872, 857.805 660.513, 863.223 666.066 C 866.406 669.330, 869.233 672, 869.505 672 C 869.777 672, 870 670.025, 870 667.610 C 870 663.631, 869.483 662.695, 864.479 657.610 C 861.442 654.525, 858.790 652, 858.584 652 C 858.378 652, 858.036 653.830, 857.822 656.066 M 366 656 C 366 657.695, 365.469 659, 364.779 659 C 364.107 659, 366.457 661.925, 370 665.500 C 373.543 669.075, 376.793 672, 377.221 672 C 377.650 672, 378 670.151, 378 667.891 C 378 664.254, 377.381 663.163, 372.609 658.391 C 369.643 655.426, 366.943 653, 366.609 653 C 366.274 653, 366 654.350, 366 656 M 806 656.279 C 806 658.424, 805.530 659, 803.779 659 C 801.917 659, 802.600 660.051, 808 665.500 C 815.244 672.809, 819 674.079, 819 669.221 C 819 667.128, 817.395 664.852, 812.500 660 C 806.337 653.892, 806 653.699, 806 656.279 M 268 657 C 268 658.400, 267.333 659, 265.779 659 C 263.917 659, 264.600 660.051, 270 665.500 C 277.252 672.817, 280 673.749, 280 668.891 C 280 666.464, 278.818 664.601, 274.609 660.391 C 271.643 657.426, 268.943 655, 268.609 655 C 268.274 655, 268 655.900, 268 657 M 755 656.739 C 755 659.800, 766.346 671.062, 766.850 668.501 C 767.072 667.372, 764.969 664.489, 761.100 660.620 C 755.966 655.486, 755 654.871, 755 656.739 M 927.250 656.745 C 925.462 657.635, 924 658.633, 924 658.963 C 924 659.293, 926.669 662.204, 929.931 665.431 C 935.747 671.187, 935.921 671.275, 938.952 670.020 C 940.652 669.316, 942.312 668.303, 942.642 667.770 C 943.190 666.884, 932.255 654.917, 931.031 655.064 C 930.739 655.099, 929.038 655.856, 927.250 656.745 M 959 657.311 C 959 658.324, 957.909 658.983, 955.897 659.187 L 952.794 659.500 958.902 665.750 C 964.091 671.059, 965.537 672, 968.505 672 C 973.656 672, 973.001 669.889, 965.500 662.314 C 961.743 658.520, 959 656.409, 959 657.311 M 156.258 657.705 C 154.226 658.096, 154.623 658.751, 160.470 664.656 C 166.329 670.573, 167.205 671.114, 169.951 670.511 C 171.615 670.145, 173.205 669.478, 173.483 669.027 C 173.761 668.577, 171.507 665.687, 168.473 662.604 C 163.004 657.047, 161.921 656.613, 156.258 657.705 M 503.500 657.675 C 498.677 658.742, 498.733 659.045, 504.859 665.021 C 510.932 670.944, 512.312 671.558, 516.834 670.348 C 519.038 669.758, 518.818 669.370, 512.863 663.361 C 509.395 659.863, 506.320 657.052, 506.029 657.116 C 505.738 657.180, 504.600 657.431, 503.500 657.675 M 626.258 657.705 C 624.226 658.096, 624.623 658.751, 630.470 664.656 C 636.329 670.573, 637.205 671.114, 639.951 670.511 C 641.615 670.145, 643.205 669.478, 643.483 669.027 C 643.761 668.577, 641.507 665.687, 638.473 662.604 C 633.004 657.047, 631.921 656.613, 626.258 657.705 M 1048.313 658.102 L 1045.127 659.024 1051.313 665.298 C 1057.093 671.159, 1057.719 671.526, 1060.829 670.873 C 1062.660 670.489, 1064.421 669.913, 1064.741 669.592 C 1065.398 668.936, 1053.429 656.950, 1052.256 657.090 C 1051.840 657.140, 1050.066 657.595, 1048.313 658.102 M 223.232 659.337 L 219.964 660.522 226.240 666.742 L 232.515 672.962 236.300 671.800 L 240.084 670.639 233.821 664.319 C 230.376 660.844, 227.320 658.034, 227.029 658.076 C 226.738 658.118, 225.029 658.685, 223.232 659.337 M 314.358 658.727 L 310.216 659.104 316.663 665.552 C 322.098 670.987, 323.652 672, 326.556 672 C 328.829 672, 330 671.528, 330 670.610 C 330 669.418, 319.367 657.687, 318.729 658.175 C 318.603 658.271, 316.636 658.519, 314.358 658.727 M 104 659.564 C 104 661.043, 116.585 671.879, 118.796 672.304 C 120.283 672.590, 121.610 672.716, 121.744 672.584 C 122.029 672.305, 114.174 664.101, 111.808 662.208 C 110.154 660.884, 104 658.800, 104 659.564 M 299.089 665.571 C 305.185 671.667, 305.937 672.118, 309.511 671.821 L 313.362 671.500 307.101 665.250 C 301.429 659.588, 300.449 659, 296.679 659 L 292.519 659 299.089 665.571 M 352.665 665.554 C 358.624 671.513, 359.549 672.080, 362.859 671.804 L 366.500 671.500 360.262 665.250 C 354.710 659.688, 353.589 659, 350.068 659 L 346.111 659 352.665 665.554 M 390.665 665.554 C 396.586 671.475, 397.563 672.078, 400.790 671.804 L 404.362 671.500 398.101 665.250 C 392.583 659.742, 391.381 659, 387.976 659 L 384.111 659 390.665 665.554 M 407.665 665.554 C 413.586 671.475, 414.563 672.078, 417.790 671.804 L 421.362 671.500 415.101 665.250 C 409.583 659.742, 408.381 659, 404.976 659 L 401.111 659 407.665 665.554 M 453.500 664.629 C 458.572 669.711, 465.433 673.900, 466.666 672.667 C 467.358 671.976, 454.124 660, 452.668 660 C 451.841 660, 450.339 659.689, 449.332 659.309 C 448.324 658.929, 450.200 661.323, 453.500 664.629 M 574 659.564 C 574 660.498, 586.387 672.001, 587.406 672.014 C 588.008 672.021, 589.555 672.310, 590.843 672.655 C 592.694 673.150, 592.154 672.254, 588.274 668.391 C 585.572 665.701, 582.648 662.919, 581.777 662.208 C 580.161 660.889, 574 658.795, 574 659.564 M 669 665.500 C 674.791 671.343, 675.847 672, 679.442 672 L 683.442 672 677 665.500 C 671.209 659.657, 670.153 659, 666.558 659 L 662.558 659 669 665.500 M 686 665.500 C 691.791 671.343, 692.847 672, 696.442 672 L 700.442 672 694 665.500 C 688.209 659.657, 687.153 659, 683.558 659 L 679.558 659 686 665.500 M 743 665.500 C 748.791 671.343, 749.847 672, 753.442 672 L 757.442 672 751 665.500 C 745.209 659.657, 744.153 659, 740.558 659 L 736.558 659 743 665.500 M 791 665.500 C 796.791 671.343, 797.847 672, 801.442 672 L 805.442 672 799 665.500 C 793.209 659.657, 792.153 659, 788.558 659 L 784.558 659 791 665.500 M 845.665 665.554 C 851.586 671.475, 852.563 672.078, 855.790 671.804 L 859.362 671.500 853.101 665.250 C 847.583 659.742, 846.381 659, 842.976 659 L 839.111 659 845.665 665.554 M 940 659.916 C 940 661.280, 952.128 672, 953.670 672 C 954.402 672, 955 671.811, 955 671.580 C 955 671.349, 952.264 668.424, 948.920 665.080 C 943.359 659.519, 940 657.574, 940 659.916 M 995 659.495 C 995 659.652, 997.459 662.279, 1000.465 665.333 C 1003.794 668.716, 1007.313 671.268, 1009.465 671.863 C 1011.409 672.400, 1013 672.700, 1013 672.529 C 1013 672.359, 1010.453 669.632, 1007.340 666.469 C 1003.708 662.778, 1000.483 660.447, 998.340 659.964 C 996.503 659.550, 995 659.339, 995 659.495 M 1086.665 665.554 C 1092.586 671.475, 1093.563 672.078, 1096.790 671.804 L 1100.362 671.500 1094.101 665.250 C 1088.583 659.742, 1087.381 659, 1083.976 659 L 1080.111 659 1086.665 665.554 M 1103.665 665.554 C 1109.586 671.475, 1110.563 672.078, 1113.790 671.804 L 1117.362 671.500 1111.101 665.250 C 1105.583 659.742, 1104.381 659, 1100.976 659 L 1097.111 659 1103.665 665.554 M 896.639 665.736 C 902.296 671.318, 906.415 673.918, 907.649 672.685 C 908.392 671.941, 896.990 661, 895.472 661 C 894.752 661, 893.339 660.702, 892.332 660.338 C 891.324 659.975, 893.263 662.403, 896.639 665.736 M 139.128 662.681 C 139.882 663.605, 142.649 666.520, 145.276 669.159 C 149.744 673.648, 150.285 673.910, 153.647 673.211 L 157.240 672.464 151.599 666.732 C 146.553 661.605, 145.525 661, 141.856 661 C 138.137 661, 137.883 661.157, 139.128 662.681 M 488.150 667.632 C 494.490 673.972, 494.942 674.233, 498.420 673.581 L 502.058 672.898 496.109 666.949 C 490.679 661.519, 489.783 661, 485.839 661 L 481.519 661 488.150 667.632 M 609.128 662.681 C 609.882 663.605, 612.649 666.520, 615.276 669.159 C 619.787 673.690, 620.259 673.915, 623.754 673.189 L 627.455 672.420 621.836 666.710 C 616.756 661.549, 615.810 661, 611.986 661 C 608.145 661, 607.882 661.155, 609.128 662.681 M 910.250 661.706 C 909.013 661.944, 908 662.382, 908 662.678 C 908 662.975, 910.426 665.643, 913.391 668.609 C 918.253 673.470, 919.208 674, 923.112 674 L 927.442 674 921 667.500 C 917.457 663.925, 914.095 661.061, 913.529 661.136 C 912.963 661.211, 911.487 661.467, 910.250 661.706 M 993.500 663 C 994.495 664.100, 995.535 665, 995.810 665 C 996.085 665, 995.495 664.100, 994.500 663 C 993.505 661.900, 992.465 661, 992.190 661 C 991.915 661, 992.505 661.900, 993.500 663 M 1034.314 667.500 C 1040.686 673.810, 1042.485 674.652, 1046.343 673.134 C 1047.941 672.505, 1047.439 671.650, 1042.572 666.704 C 1037.355 661.404, 1036.632 661, 1032.354 661 L 1027.750 661 1034.314 667.500 M 101.020 663.524 C 101.716 664.362, 102.491 664.842, 102.743 664.591 C 103.436 663.897, 102.027 662, 100.819 662 C 100.155 662, 100.231 662.574, 101.020 663.524 M 121 662.479 C 121 662.742, 123.525 665.442, 126.610 668.479 C 131.549 673.340, 132.704 674, 136.266 674 L 140.313 674 134.162 668 C 129.013 662.977, 127.440 662, 124.506 662 C 122.578 662, 121 662.215, 121 662.479 M 204 662.390 C 204 662.604, 206.485 665.304, 209.521 668.390 C 214.251 673.196, 215.572 674, 218.740 674 L 222.437 674 216.500 668 C 211.643 663.092, 209.965 662, 207.281 662 C 205.477 662, 204 662.175, 204 662.390 M 470.500 668 C 475.788 673.344, 476.875 674, 480.437 674 L 484.437 674 478.500 668 C 473.212 662.656, 472.125 662, 468.563 662 L 464.563 662 470.500 668 M 571.020 663.524 C 571.716 664.362, 572.491 664.842, 572.743 664.591 C 573.436 663.897, 572.027 662, 570.819 662 C 570.155 662, 570.231 662.574, 571.020 663.524 M 591 662.479 C 591 662.742, 593.525 665.442, 596.610 668.479 C 601.577 673.368, 602.691 674, 606.329 674 L 610.437 674 604.500 668 C 599.326 662.771, 598.077 662, 594.781 662 C 592.702 662, 591 662.215, 591 662.479 M 1012 662.609 C 1012 662.943, 1014.426 665.643, 1017.391 668.609 C 1022.161 673.378, 1023.256 674, 1026.886 674 L 1030.989 674 1024.838 668 C 1019.804 663.089, 1018.080 662, 1015.344 662 C 1013.505 662, 1012 662.274, 1012 662.609" stroke="none" fill="#000000" fill-rule="evenodd"/><path d="M 722.014 542.752 C 717.646 544.942, 716.029 548.116, 716.029 554.500 C 716.029 564.884, 720.354 567.996, 734.782 567.998 C 749.669 568.001, 754.012 565.067, 753.985 555.027 C 753.956 544.015, 749.879 541.003, 735 541.003 C 727.951 541.003, 724.600 541.454, 722.014 542.752 M 940 543.610 C 931.475 544.271, 923.938 544.855, 923.250 544.906 C 922.319 544.976, 922 548.299, 922 557.910 L 922 570.821 906.750 571.177 C 890.020 571.568, 887.172 572.398, 879.531 579.107 C 870.054 587.428, 865.692 608.744, 869.569 627.792 C 872.586 642.621, 877.791 650.583, 887.682 655.502 C 892.681 657.988, 894.944 658.454, 903.755 658.812 C 915.651 659.294, 922.164 657.703, 928.338 652.808 L 932.175 649.765 935.880 653.383 C 939.562 656.979, 939.636 657, 948.292 657 L 957 657 957 600.059 C 957 568.741, 956.663 542.958, 956.250 542.763 C 955.837 542.567, 948.525 542.948, 940 543.610 M 114.500 547.559 C 113.400 547.812, 110.025 548.512, 107 549.114 C 99.546 550.596, 90.580 555.504, 86.396 560.393 C 78.451 569.674, 75.094 582.152, 75.035 602.619 C 74.916 644.081, 88.418 659.005, 126 658.948 C 138.454 658.929, 148.681 657.444, 160.480 653.941 L 168 651.709 168 622.854 L 168 594 146.971 594 L 125.942 594 126.221 607.250 L 126.500 620.500 130.750 620.807 C 134.816 621.102, 135 621.256, 135 624.366 C 135 630.510, 133.360 631.459, 122.082 631.844 L 112 632.187 112 606.704 C 112 576.665, 111.705 577.576, 122 575.876 C 128.075 574.873, 140.703 575.182, 152.583 576.623 L 157.667 577.239 160.241 564.370 C 161.656 557.291, 162.630 551.311, 162.404 551.080 C 160.186 548.812, 121.431 545.963, 114.500 547.559 M 584.500 547.559 C 583.400 547.812, 580.025 548.512, 577 549.114 C 569.671 550.571, 560.600 555.482, 556.597 560.157 C 547.885 570.336, 544.443 584.933, 545.315 608 C 546.292 633.832, 552.053 646.433, 566.152 653.577 C 580.316 660.754, 609.158 660.839, 631.250 653.767 L 638 651.606 638 622.803 L 638 594 616.971 594 L 595.942 594 596.221 607.250 L 596.500 620.500 600.750 620.807 C 604.816 621.102, 605 621.256, 605 624.366 C 605 630.510, 603.360 631.459, 592.082 631.844 L 582 632.187 582 606.704 C 582 576.665, 581.705 577.576, 592 575.876 C 598.075 574.873, 610.703 575.182, 622.583 576.623 L 627.667 577.239 630.241 564.370 C 631.656 557.291, 632.630 551.311, 632.404 551.080 C 630.186 548.812, 591.431 545.963, 584.500 547.559 M 756.495 554.314 C 756.802 558.084, 757.608 559.513, 761.777 563.682 C 767.145 569.049, 769 569.379, 769 564.964 C 769 562.866, 767.705 560.806, 764.181 557.298 C 756.018 549.172, 756.078 549.196, 756.495 554.314 M 165 552.041 C 165 553.984, 176.704 565.630, 177.678 564.656 C 178.079 564.254, 175.391 560.909, 171.704 557.222 C 167.971 553.490, 165 551.193, 165 552.041 M 635 551.765 C 635 553.496, 646.848 565.485, 647.709 564.625 C 648.093 564.240, 645.391 560.909, 641.704 557.222 C 638.017 553.535, 635 551.079, 635 551.765 M 959 556.622 C 959 560.241, 959.660 561.363, 965.005 566.844 C 968.308 570.230, 971.233 573, 971.505 573 C 971.777 573, 972 571.300, 972 569.221 C 972 565.898, 971.217 564.666, 965.500 559 L 959 552.558 959 556.622 M 162.630 564.250 C 162.299 565.487, 162.021 567.217, 162.014 568.094 C 162.001 569.554, 173.806 582.592, 174.452 581.832 C 174.608 581.649, 175.031 579.860, 175.393 577.856 C 176.017 574.402, 175.731 573.891, 169.946 568.106 C 166.587 564.747, 163.703 562, 163.537 562 C 163.370 562, 162.962 563.013, 162.630 564.250 M 632.630 564.250 C 632.299 565.487, 632.021 567.217, 632.014 568.094 C 632.001 569.584, 643.786 582.555, 644.496 581.832 C 644.675 581.649, 645.123 579.885, 645.492 577.911 C 646.126 574.515, 645.830 573.990, 640.001 568.161 C 636.612 564.772, 633.703 562, 633.537 562 C 633.370 562, 632.962 563.013, 632.630 564.250 M 751.813 567.683 C 752.534 567.972, 753.397 567.936, 753.729 567.604 C 754.061 567.272, 753.471 567.036, 752.417 567.079 C 751.252 567.127, 751.015 567.364, 751.813 567.683 M 208.500 568.621 C 206.300 568.855, 199.852 570.002, 194.172 571.170 C 184.753 573.107, 183.890 573.472, 184.374 575.321 C 184.665 576.437, 185.672 582.029, 186.611 587.750 C 188.209 597.489, 188.450 598.111, 190.409 597.530 C 196.636 595.681, 210.807 594.007, 220.250 594.004 L 231 594 231 597 L 231 600 222.588 600 C 212.773 600, 200.894 602.068, 194.522 604.887 C 181.022 610.859, 175.037 622.961, 177.898 638.500 C 179.351 646.389, 183.164 651.730, 190.034 655.500 C 195.236 658.355, 196.055 658.497, 207 658.447 C 220.031 658.387, 226.585 656.490, 234.417 650.512 L 238.765 647.193 243.595 652.096 L 248.425 657 256.712 657 L 265 657 265 623.583 C 265 593.165, 264.832 589.777, 263.132 585.833 C 259.838 578.193, 253.342 573.131, 243.443 570.489 C 237.557 568.918, 216.367 567.786, 208.500 568.621 M 324.203 569.115 C 318.466 570.070, 314.297 571.891, 309.317 575.618 C 307.566 576.928, 305.865 578, 305.536 578 C 305.208 578, 303.556 576.425, 301.866 574.500 L 298.793 571 289.896 571 L 281 571 281 614 L 281 657 298 657 L 315 657 315 629.635 C 315 603.464, 315.090 602.155, 317.073 599.635 C 318.811 597.425, 319.940 597, 324.073 597 L 329 597 329 627 L 329 657 346 657 L 363 657 363 629.455 L 363 601.909 365.455 599.455 C 367.341 597.568, 368.962 597, 372.455 597 L 377 597 377 627 L 377 657 394.034 657 L 411.069 657 410.784 619.171 L 410.500 581.342 407.610 577.554 C 400.051 567.648, 377.504 565.121, 362.757 572.528 L 358.013 574.911 353.256 572.444 C 345.549 568.445, 335.290 567.270, 324.203 569.115 M 456.638 569.030 C 435.368 572.390, 424.059 587.656, 424.015 613.066 C 423.995 624.241, 425.489 632.071, 429.087 639.649 C 433.713 649.394, 442.395 655.600, 454.825 658.045 C 465.657 660.176, 501.425 657.508, 506.689 654.176 C 507.430 653.708, 507.130 649.714, 505.713 641.165 C 503.802 629.635, 503.533 628.862, 501.584 629.322 C 490.437 631.953, 481.766 633.140, 472.500 633.304 L 461.500 633.500 461.199 630.910 L 460.898 628.320 473.699 627.210 C 488.753 625.904, 495.449 624.292, 500.958 620.647 C 509.518 614.982, 513.199 604.040, 510.977 590.865 C 508.874 578.398, 502.830 572.456, 489.676 569.924 C 482.104 568.467, 463.405 567.961, 456.638 569.030 M 699 569.934 C 692.533 571.960, 687.761 574.338, 683.196 577.808 L 679.893 580.319 675.162 575.660 L 670.431 571 661.716 571 L 653 571 653 614 L 653 657 670.500 657 L 688 657 688 632.115 L 688 607.230 690.555 605.556 C 691.960 604.635, 696.348 603.059, 700.305 602.055 C 704.262 601.050, 707.444 600.064, 707.375 599.864 C 707.307 599.664, 706.918 592.632, 706.512 584.239 C 706.105 575.845, 705.486 568.805, 705.136 568.594 C 704.786 568.383, 702.025 568.986, 699 569.934 M 818.177 569.448 C 813.822 570.272, 807.569 572.501, 802.746 574.948 L 794.639 579.062 790.531 575.031 L 786.424 571 777.712 571 L 769 571 769 614 L 769 657 786.500 657 L 804 657 804 628.557 C 804 600.298, 804.014 600.103, 806.223 598.557 C 807.661 597.549, 810.659 597, 814.723 597 L 821 597 821 627 L 821 657 838 657 L 855 657 855 619.838 L 855 582.676 852.501 578.412 C 847.471 569.829, 834.320 566.395, 818.177 569.448 M 1003.951 569.061 C 990.261 571.076, 980.171 577.798, 975.105 588.276 C 971.290 596.168, 969.475 609.757, 970.736 621 C 972.807 639.476, 979.577 650.095, 992.822 655.641 C 999.206 658.315, 1000.227 658.439, 1016 658.469 C 1031.705 658.499, 1049.045 656.445, 1052.828 654.107 C 1053.850 653.475, 1053.702 650.962, 1052.088 641.528 C 1050.979 635.044, 1049.909 629.575, 1049.709 629.376 C 1049.510 629.176, 1045.306 629.895, 1040.368 630.973 C 1030.257 633.179, 1013.586 634.615, 1009.622 633.620 C 1007.714 633.141, 1007 632.316, 1007 630.589 C 1007 628.291, 1007.324 628.194, 1017.250 627.525 C 1037.236 626.177, 1046.047 623.268, 1052.314 615.946 C 1056.760 610.753, 1058.446 604.082, 1057.725 594.545 C 1056.441 577.574, 1049.481 571.337, 1029.237 569.018 C 1019.262 567.875, 1011.923 567.887, 1003.951 569.061 M 1114.991 570.340 C 1108.192 572.741, 1104.055 574.993, 1100.230 578.378 L 1097.960 580.386 1093.196 575.693 L 1088.431 571 1079.716 571 L 1071 571 1071 614 L 1071 657 1088 657 L 1105 657 1105 632.184 L 1105 607.368 1108.750 605.269 C 1110.813 604.114, 1115.359 602.581, 1118.852 601.863 L 1125.205 600.558 1124.584 591.029 C 1123.511 574.543, 1122.818 567.999, 1122.149 568.021 C 1121.792 568.033, 1118.571 569.076, 1114.991 570.340 M 755 572.565 C 755 576.124, 755.658 577.213, 761 582.500 L 767 588.437 767 585.278 C 767 583.540, 766.543 581.835, 765.984 581.490 C 765.425 581.144, 765.179 580.519, 765.437 580.101 C 765.696 579.683, 763.453 576.917, 760.454 573.954 L 755 568.568 755 572.565 M 959 573.880 C 959 577.567, 959.629 578.656, 964.847 584.006 C 968.063 587.303, 970.988 590, 971.347 590 C 971.706 590, 972 588.398, 972 586.439 C 972 583.396, 971.054 581.923, 965.500 576.314 L 959 569.750 959 573.880 M 708.258 575.176 C 708.616 578.670, 709.466 580.530, 711.619 582.533 L 714.500 585.214 714.820 581.444 C 715.095 578.210, 714.617 577.163, 711.459 574.087 L 707.779 570.500 708.258 575.176 M 732.500 573.037 C 725.350 574.024, 719.163 574.869, 718.750 574.916 C 718.337 574.962, 718 593.450, 718 616 L 718 657 735 657 L 752 657 752 614 L 752 571 748.750 571.121 C 746.962 571.188, 739.650 572.050, 732.500 573.037 M 1126 575.506 C 1126 578.430, 1126.970 580.005, 1131.847 585.006 C 1135.063 588.303, 1137.988 591, 1138.347 591 C 1139.369 591, 1139.112 586.077, 1137.979 583.961 C 1136.943 582.025, 1127.282 572, 1126.452 572 C 1126.204 572, 1126 573.578, 1126 575.506 M 118.565 578.896 C 118.260 579.388, 120.577 582.399, 123.714 585.586 C 128.725 590.678, 129.842 591.352, 132.921 591.145 C 134.848 591.015, 136.641 590.693, 136.905 590.428 C 137.169 590.164, 134.725 587.259, 131.474 583.974 C 126.685 579.134, 124.951 578, 122.340 578 C 120.568 578, 118.869 578.403, 118.565 578.896 M 141.140 584.518 C 146.429 589.681, 148.414 591, 150.890 591 C 152.601 591, 154 590.676, 154 590.279 C 154 589.882, 151.427 586.957, 148.281 583.779 C 143.184 578.628, 142.125 578.002, 138.531 578.018 L 134.500 578.036 141.140 584.518 M 589.200 578.855 C 588.249 579.459, 589.442 581.245, 593.659 585.530 C 598.724 590.676, 599.839 591.352, 602.921 591.145 C 604.848 591.015, 606.641 590.693, 606.905 590.428 C 607.169 590.164, 604.725 587.259, 601.474 583.974 C 595.614 578.052, 592.509 576.757, 589.200 578.855 M 611.140 584.518 C 616.429 589.681, 618.414 591, 620.890 591 C 622.601 591, 624 590.676, 624 590.279 C 624 589.882, 621.427 586.957, 618.281 583.779 C 613.184 578.628, 612.125 578.002, 608.531 578.018 L 604.500 578.036 611.140 584.518 M 156.267 584.172 C 158.949 586.853, 162.123 589.661, 163.321 590.411 C 165.967 592.068, 173 593.414, 173 592.264 C 173 591.809, 170.360 588.825, 167.134 585.633 C 161.748 580.303, 160.865 579.807, 156.330 579.562 L 151.391 579.296 156.267 584.172 M 412.353 580.332 C 412.709 581.339, 413 582.516, 413 582.946 C 413 583.376, 415.340 586.106, 418.201 589.012 C 423.409 594.303, 425.913 594.462, 422.162 589.265 C 419.131 585.063, 411.602 578.207, 412.353 580.332 M 626.184 584.089 C 628.911 586.816, 632.123 589.661, 633.321 590.411 C 635.967 592.068, 643 593.414, 643 592.264 C 643 591.809, 640.360 588.824, 637.132 585.631 C 631.768 580.322, 630.834 579.795, 626.245 579.477 L 621.226 579.130 626.184 584.089 M 1058.062 583.748 C 1058.685 585.534, 1061.175 589.093, 1063.597 591.657 C 1067.661 595.959, 1068 596.130, 1068 593.875 C 1068 592.237, 1066.177 589.631, 1062.465 585.966 C 1057.157 580.724, 1056.977 580.633, 1058.062 583.748 M 512.081 584.750 C 513.120 587.522, 522.737 598, 524.242 598 C 525.841 598, 521.677 591.560, 517.018 586.827 C 514.405 584.172, 511.993 582, 511.658 582 C 511.323 582, 511.514 583.237, 512.081 584.750 M 857.610 586.734 C 858.076 589.219, 859.738 591.896, 862.576 594.734 L 866.841 598.999 867.496 596.020 C 868.071 593.402, 867.550 592.430, 863.209 588.020 C 860.491 585.259, 857.962 583, 857.588 583 C 857.215 583, 857.225 584.680, 857.610 586.734 M 114 589.866 C 114 593.275, 114.678 594.522, 118.750 598.603 L 123.500 603.364 123.815 599.612 C 124.096 596.249, 123.603 595.342, 119.065 590.875 L 114 585.889 114 589.866 M 266.574 588.500 C 267.597 592.866, 268.351 594.017, 273.423 598.958 L 278 603.416 278 600.427 C 278 598.092, 276.671 596.130, 271.935 591.469 C 266.255 585.878, 265.916 585.690, 266.574 588.500 M 755 589.739 C 755 593.551, 755.555 594.505, 760.750 599.627 L 766.500 605.297 766.820 601.479 C 767.115 597.973, 766.645 597.165, 761.070 591.590 L 755 585.520 755 589.739 M 584.655 589.155 C 583.596 593.110, 583.847 593.689, 588.750 598.603 L 593.500 603.364 593.820 599.515 C 594.104 596.105, 593.636 595.162, 589.712 591.238 C 585.408 586.934, 585.265 586.875, 584.655 589.155 M 959 591.030 C 959 594.308, 959.723 595.719, 963.331 599.485 C 967.929 604.283, 969 604.358, 969 599.881 C 969 597.871, 967.607 595.702, 964 592.095 L 959 587.095 959 591.030 M 709.360 592.228 C 709.709 594.997, 710.793 597.793, 711.978 598.978 C 714.701 601.701, 715 601.561, 715 597.562 C 715 595.087, 714.126 593.195, 711.882 590.812 L 708.763 587.500 709.360 592.228 M 1127 592.506 C 1127 595.430, 1127.970 597.005, 1132.847 602.006 C 1136.063 605.303, 1138.988 608, 1139.347 608 C 1139.706 608, 1140 606.495, 1140 604.656 C 1140 601.920, 1138.910 600.196, 1133.995 595.156 C 1130.692 591.770, 1127.767 589, 1127.495 589 C 1127.223 589, 1127 590.578, 1127 592.506 M 414 597.186 C 414 600.875, 414.547 602.137, 417.298 604.804 C 419.111 606.562, 420.911 608, 421.298 608 C 421.684 608, 422 606.372, 422 604.382 C 422 601.495, 421.192 599.957, 418 596.765 L 414 592.765 414 597.186 M 466.646 593.952 C 461.910 594.894, 461.035 596.185, 461.015 602.250 L 461 607 468.309 607 C 477.903 607, 479.387 605.917, 479.451 598.866 L 479.500 593.500 475 593.343 C 472.525 593.256, 468.766 593.530, 466.646 593.952 M 911.263 593.722 C 905.522 594.436, 905 596.322, 905 616.357 L 905 634.269 912.175 633.755 C 917.539 633.372, 919.684 632.785, 920.675 631.430 C 921.661 630.082, 922 624.931, 922 611.309 L 922 593 918.250 593.160 C 916.188 593.248, 913.043 593.501, 911.263 593.722 M 1013.157 593.995 C 1008.561 595.082, 1007.792 596.113, 1007.232 601.941 L 1006.746 607 1014.150 607 C 1024.199 607, 1026 605.699, 1026 598.443 L 1026 593 1021.250 593.102 C 1018.638 593.159, 1014.996 593.560, 1013.157 593.995 M 170 596.669 C 170 599.099, 171.214 601.014, 175.549 605.419 C 178.601 608.520, 181.526 610.793, 182.049 610.470 C 184.239 609.116, 182.625 606.071, 176.500 600 L 170 593.558 170 596.669 M 640 596.674 C 640 599.095, 641.214 601.013, 645.500 605.369 L 651 610.957 651 607.694 C 651 605.065, 649.933 603.378, 645.500 599 L 640 593.568 640 596.674 M 212.500 597 C 212.840 597.550, 215.229 597.993, 217.809 597.985 C 221.206 597.974, 222.086 597.702, 221 597 C 218.989 595.700, 211.697 595.700, 212.500 597 M 470.732 600.169 C 475.366 604.840, 477.422 604.571, 476.828 599.372 C 476.521 596.684, 476.180 596.481, 471.500 596.202 L 466.500 595.904 470.732 600.169 M 514 600.159 C 514 604.196, 514.481 605.039, 519.779 610.281 C 522.957 613.427, 525.882 616, 526.279 616 C 526.676 616, 527 614.221, 527 612.048 C 527 608.655, 526.318 607.416, 522.181 603.298 C 513.904 595.058, 514 595.095, 514 600.159 M 914.538 601.050 L 919.500 606.100 919.815 602.480 C 920.232 597.675, 918.642 596, 913.665 596 L 909.575 596 914.538 601.050 M 1014 596.452 C 1014 597.249, 1021.276 604, 1022.134 604 C 1023.619 604, 1024.271 599.031, 1022.989 597.487 C 1021.896 596.170, 1014 595.261, 1014 596.452 M 1060 599.999 C 1060 603.311, 1060.687 604.706, 1064 608.119 L 1068 612.241 1068 607.587 C 1068 603.610, 1067.496 602.429, 1064.533 599.467 C 1062.627 597.560, 1060.827 596, 1060.533 596 C 1060.240 596, 1060 597.799, 1060 599.999 M 200 597.754 C 198.625 597.943, 196.825 598.331, 196 598.616 C 194.695 599.067, 194.707 599.251, 196.094 600.030 C 197.489 600.813, 205 599.574, 205 598.560 C 205 597.841, 202.407 597.424, 200 597.754 M 323.500 601 C 324.495 602.100, 325.465 603, 325.655 603 C 325.845 603, 326 602.100, 326 601 C 326 599.619, 325.333 599, 323.845 599 C 321.753 599, 321.743 599.059, 323.500 601 M 814.732 601 C 815.674 602.100, 816.794 603, 817.222 603 C 817.650 603, 818 602.100, 818 601 C 818 599.535, 817.333 599, 815.510 599 C 813.115 599, 813.085 599.077, 814.732 601 M 858 603.186 C 858 606.875, 858.547 608.137, 861.298 610.804 C 863.111 612.562, 864.911 614, 865.298 614 C 865.684 614, 866 612.372, 866 610.382 C 866 607.495, 865.192 605.957, 862 602.765 L 858 598.765 858 603.186 M 366 604.550 C 366 607.223, 366.827 608.951, 369.351 611.550 C 371.194 613.447, 372.994 615, 373.351 615 C 373.708 615, 374 613.288, 374 611.196 C 374 608.206, 373.294 606.708, 370.702 604.196 C 368.889 602.438, 367.089 601, 366.702 601 C 366.316 601, 366 602.597, 366 604.550 M 268 605.921 C 268 609.607, 268.603 610.725, 273 615.192 L 278 620.271 278 616.079 C 278 612.393, 277.397 611.275, 273 606.808 L 268 601.729 268 605.921 M 806 605.926 C 806 609.569, 806.649 610.677, 812 616.162 L 818 622.313 818 618.076 C 818 614.232, 817.445 613.285, 812 607.840 L 806 601.840 806 605.926 M 114 606.913 C 114 610.386, 114.683 611.642, 119 616.097 L 124 621.257 124 616.995 C 124 613.203, 123.448 612.189, 119 607.811 L 114 602.889 114 606.913 M 584 606.756 C 584 610.418, 584.620 611.577, 589 616.097 L 594 621.257 594 616.841 C 594 612.865, 593.502 611.934, 589 607.500 L 584 602.575 584 606.756 M 701.225 604.125 L 697.949 605.070 704.431 611.616 C 709.529 616.764, 711.349 618.024, 712.956 617.514 C 716.423 616.414, 715.452 612.610, 710.421 607.579 C 707.903 605.061, 705.540 603.041, 705.171 603.090 C 704.802 603.140, 703.026 603.606, 701.225 604.125 M 755 606.861 C 755 610.782, 755.528 611.688, 761 617.160 L 767 623.160 767 618.799 C 767 614.795, 766.509 613.951, 761 608.500 L 755 602.563 755 606.861 M 1120.500 603.675 C 1115.537 604.773, 1115.588 605.031, 1122.064 611.564 C 1127.863 617.416, 1128.787 617.988, 1131.496 617.408 C 1133.148 617.054, 1134.883 616.538, 1135.351 616.261 C 1136.175 615.773, 1124.092 602.883, 1123.029 603.116 C 1122.738 603.180, 1121.600 603.431, 1120.500 603.675 M 959 608.274 C 959 612.061, 959.546 613.119, 963.500 617 L 968 621.416 968 617.387 C 968 613.974, 967.312 612.639, 963.500 608.661 L 959 603.965 959 608.274 M 317 608.879 C 317 612.052, 317.729 613.510, 320.999 616.879 C 323.198 619.146, 325.223 621, 325.499 621 C 325.775 621, 326 619.200, 326 616.999 C 326 613.625, 325.354 612.371, 321.879 608.999 C 319.613 606.800, 317.588 605, 317.379 605 C 317.171 605, 317 606.746, 317 608.879 M 170 613.278 C 170 616.674, 170.570 618.187, 172.553 620.049 C 174.705 622.072, 175.251 622.217, 176.037 620.974 C 177.761 618.249, 177.021 615.723, 173.500 612.303 L 170 608.904 170 613.278 M 640 612.844 C 640 616.411, 640.674 617.611, 645.500 622.633 L 651 628.357 651 624.157 C 651 620.410, 650.407 619.354, 645.500 614.369 L 640 608.780 640 612.844 M 690 612.284 C 690 615.478, 690.836 616.868, 695.847 622.006 C 699.063 625.303, 701.988 628, 702.347 628 C 702.706 628, 703 626.525, 703 624.721 C 703 622.013, 701.869 620.321, 696.500 615 L 690 608.558 690 612.284 M 1108 612.656 C 1108 616.088, 1108.702 617.258, 1113.779 622.281 C 1116.957 625.427, 1119.882 628, 1120.279 628 C 1120.676 628, 1121 626.623, 1121 624.939 C 1121 622.512, 1119.655 620.519, 1114.500 615.314 L 1108 608.750 1108 612.656 M 414 614.466 C 414 618.246, 414.543 619.477, 417.533 622.467 C 419.477 624.410, 421.277 626, 421.533 626 C 421.790 626, 422 624.254, 422 622.121 C 422 618.948, 421.271 617.490, 418 614.119 L 414 609.998 414 614.466 M 908 615.784 C 908 619.029, 908.756 620.315, 913.308 624.810 C 916.227 627.693, 918.927 629.740, 919.308 629.359 C 919.688 628.978, 920 627.441, 920 625.943 C 920 623.985, 918.449 621.644, 914.479 617.610 C 911.442 614.525, 908.742 612, 908.479 612 C 908.215 612, 908 613.703, 908 615.784 M 509.697 615.574 C 508.705 616.918, 508.212 618.533, 508.601 619.163 C 509.063 619.911, 508.863 620.033, 508.025 619.515 C 507.163 618.983, 506.907 619.179, 507.245 620.111 C 507.523 620.875, 508.369 621.350, 509.125 621.167 C 509.881 620.983, 510.166 621.167, 509.759 621.575 C 508.689 622.645, 511.012 625.101, 512.363 624.329 C 512.988 623.972, 513.166 624.048, 512.759 624.498 C 511.744 625.617, 513.972 628.135, 515.268 627.334 C 515.840 626.981, 516.025 627.150, 515.678 627.712 C 515.331 628.273, 515.979 629.576, 517.118 630.607 C 519.156 632.451, 519.228 632.436, 521.595 629.685 C 522.918 628.147, 524 626.563, 524 626.165 C 524 625.768, 521.188 622.672, 517.750 619.286 L 511.500 613.130 509.697 615.574 M 1055.310 616.522 L 1053.119 619.959 1059.182 626.022 C 1062.517 629.357, 1065.752 631.918, 1066.372 631.715 C 1066.993 631.511, 1067.636 629.512, 1067.803 627.272 C 1068.080 623.543, 1067.676 622.772, 1063.005 618.100 C 1060.200 615.295, 1057.814 613.019, 1057.702 613.042 C 1057.591 613.066, 1056.514 614.631, 1055.310 616.522 M 858 620.435 C 858 624.471, 858.490 625.395, 863.048 629.952 C 865.824 632.729, 868.288 635, 868.523 635 C 868.758 635, 868.512 633.846, 867.975 632.435 C 867.439 631.024, 867 628.855, 867 627.614 C 867 626.302, 865.116 623.391, 862.500 620.661 L 858 615.965 858 620.435 M 366 621.797 C 366 624.909, 366.721 626.299, 370 629.500 L 374 633.406 374 629.236 C 374 625.797, 373.381 624.448, 370.467 621.533 C 368.523 619.590, 366.723 618, 366.467 618 C 366.210 618, 366 619.709, 366 621.797 M 268 623.152 C 268 627.137, 268.496 628.064, 273 632.500 L 278 637.425 278 633.156 C 278 629.378, 277.426 628.304, 273 623.808 L 268 618.729 268 623.152 M 806 622.926 C 806 626.569, 806.649 627.677, 812 633.162 L 818 639.313 818 635.076 C 818 631.232, 817.445 630.285, 812 624.840 L 806 618.840 806 622.926 M 216.028 621.113 C 212.657 622.459, 212.033 623.723, 212.015 629.250 L 212 634 219.045 634 C 225.192 634, 226.404 633.687, 228.545 631.545 C 230.432 629.659, 231 628.038, 231 624.545 L 231 620 224.750 620.063 C 221.313 620.098, 217.388 620.571, 216.028 621.113 M 755 623.861 C 755 627.782, 755.528 628.688, 761 634.160 L 767 640.160 767 635.799 C 767 631.795, 766.509 630.951, 761 625.500 L 755 619.563 755 623.861 M 114.193 625.250 L 114.500 629.500 119.497 629.815 L 124.493 630.130 119.729 625.565 C 117.109 623.054, 114.722 621, 114.425 621 C 114.128 621, 114.023 622.913, 114.193 625.250 M 584.193 625.250 L 584.500 629.500 589.497 629.815 L 594.493 630.130 589.729 625.565 C 587.109 623.054, 584.722 621, 584.425 621 C 584.128 621, 584.023 622.913, 584.193 625.250 M 959 625.327 C 959 629.207, 959.539 630.092, 965.500 636 C 971.004 641.455, 972 642.097, 972 640.189 C 972 636.151, 969.342 631.437, 964.122 626.217 L 959 621.095 959 625.327 M 220.312 622.698 C 218.274 623.094, 218.401 623.391, 222.173 627.052 C 224.400 629.213, 226.622 630.734, 227.111 630.432 C 227.600 630.129, 228 628.382, 228 626.548 C 228 622.309, 226.410 621.513, 220.312 622.698 M 317 625.708 C 317 629.103, 317.673 630.554, 320.808 633.916 C 322.903 636.162, 324.928 638, 325.308 638 C 325.689 638, 326 636.294, 326 634.208 C 326 631.035, 325.266 629.696, 321.500 626 L 317 621.584 317 625.708 M 128.637 625.539 C 130.985 627.716, 131.500 627.857, 132.242 626.531 C 133.505 624.275, 132.295 623, 128.889 623 L 125.897 623 128.637 625.539 M 598.574 625.481 C 601.481 628.175, 603 627.990, 603 624.941 C 603 623.384, 602.297 623, 599.448 623 L 595.897 623 598.574 625.481 M 493.500 626.425 C 491.012 627.533, 490.792 627.882, 492.209 628.471 C 494.583 629.459, 501.711 627.065, 499.870 625.898 C 498.060 624.752, 497.077 624.833, 493.500 626.425 M 690 628.945 C 690 632.553, 690.659 633.687, 695.847 639.006 C 699.063 642.303, 701.988 645, 702.347 645 C 702.706 645, 703 643.369, 703 641.376 C 703 638.243, 702.120 636.881, 696.500 631.316 L 690 624.879 690 628.945 M 1040.028 626.165 C 1037.125 627.007, 1036.834 627.328, 1038.252 628.121 C 1040.197 629.210, 1045.985 628.007, 1046.058 626.500 C 1046.125 625.101, 1044.088 624.988, 1040.028 626.165 M 1108 629.534 C 1108 633.584, 1108.474 634.425, 1113.610 639.479 C 1116.696 642.515, 1119.621 645, 1120.110 645 C 1120.600 645, 1121 643.450, 1121 641.556 C 1121 638.650, 1119.984 637.095, 1114.500 631.611 L 1108 625.111 1108 629.534 M 170 630.857 C 170 633.611, 170.685 635.295, 172.500 637 L 175 639.349 175 635.609 C 175 631.354, 173.757 628.504, 171.528 627.649 C 170.323 627.187, 170 627.865, 170 630.857 M 414 631.628 C 414 635.823, 414.437 636.597, 419.877 642.037 C 423.109 645.269, 426.034 647.633, 426.377 647.290 C 427.551 646.116, 427 641.446, 425.422 639.192 C 424.554 637.953, 421.629 634.724, 418.922 632.017 L 414 627.095 414 631.628 M 640 630.455 C 640 633.281, 640.999 634.949, 645.500 639.633 L 651 645.357 651 641.131 C 651 637.398, 650.422 636.326, 646.048 631.952 C 643.324 629.229, 640.849 627, 640.548 627 C 640.246 627, 640 628.555, 640 630.455 M 474 630 C 474 630.550, 476.363 630.993, 479.250 630.985 C 483.008 630.974, 484.074 630.694, 483 630 C 481.021 628.721, 474 628.721, 474 630 M 506 630.271 C 506 632.662, 518.196 644.913, 518.793 643.122 C 519.042 642.375, 516.265 638.784, 512.623 635.141 C 508.163 630.682, 506 629.091, 506 630.271 M 908 630.500 C 908 631.325, 908.661 632, 909.469 632 C 910.363 632, 910.712 631.414, 910.362 630.500 C 910.045 629.675, 909.384 629, 908.893 629 C 908.402 629, 908 629.675, 908 630.500 M 1020 630 C 1020 630.550, 1022.277 631, 1025.059 631 C 1028.177 631, 1029.881 630.616, 1029.500 630 C 1029.160 629.450, 1026.884 629, 1024.441 629 C 1021.998 629, 1020 629.450, 1020 630 M 1053 631.281 C 1053 631.986, 1055.700 635.234, 1059 638.500 C 1063.312 642.767, 1065 643.923, 1065 642.610 C 1065 640.967, 1055.093 630, 1053.609 630 C 1053.274 630, 1053 630.577, 1053 631.281 M 858 637.636 C 858 641.822, 858.440 642.600, 863.877 648.037 C 867.109 651.269, 870.034 653.633, 870.377 653.290 C 870.720 652.947, 871 651.192, 871 649.389 C 871 646.688, 869.856 644.967, 864.500 639.611 L 858 633.111 858 637.636 M 366 638.967 C 366 642.174, 366.677 643.610, 369.533 646.467 C 371.477 648.410, 373.277 650, 373.533 650 C 373.790 650, 374 648.215, 374 646.033 C 374 642.826, 373.323 641.390, 370.467 638.533 C 368.523 636.590, 366.723 635, 366.467 635 C 366.210 635, 366 636.785, 366 638.967 M 268 640.317 C 268 644.489, 268.453 645.358, 273 649.905 L 278 654.905 278 650.396 C 278 646.330, 277.510 645.389, 273 640.808 L 268 635.729 268 640.317 M 806 640.201 C 806 644.205, 806.491 645.049, 812 650.500 L 818 656.437 818 652.139 C 818 648.218, 817.472 647.312, 812 641.840 L 806 635.840 806 640.201 M 755 641.580 C 755 644.622, 755.901 646.061, 761 651.160 L 767 657.160 767 653.190 C 767 649.720, 766.304 648.513, 761.479 643.610 C 758.442 640.525, 755.742 638, 755.479 638 C 755.215 638, 755 639.611, 755 641.580 M 959 642.622 C 959 646.241, 959.660 647.363, 965.005 652.844 C 968.308 656.230, 971.233 659, 971.505 659 C 971.777 659, 972 657.300, 972 655.221 C 972 651.898, 971.217 650.666, 965.500 645 L 959 638.558 959 642.622 M 317 643.416 C 317 645.991, 317.937 647.838, 320.808 650.916 C 322.903 653.162, 324.928 655, 325.308 655 C 325.689 655, 326 653.372, 326 651.383 C 326 648.477, 325.214 647.003, 321.999 643.883 C 319.798 641.747, 317.773 640, 317.499 640 C 317.224 640, 317 641.537, 317 643.416 M 508.348 643.167 C 508.692 644.450, 508.979 646.321, 508.986 647.324 C 509 649.103, 519.528 661, 521.089 661 C 521.521 661, 521.612 659.385, 521.292 657.410 C 520.856 654.727, 519.070 652.181, 514.216 647.327 C 509.473 642.584, 507.892 641.463, 508.348 643.167 M 690 646.219 C 690 650.232, 690.488 651.042, 696.500 657 L 703 663.442 703 659.097 C 703 655.076, 702.515 654.272, 696.500 648.316 L 690 641.879 690 646.219 M 1055.315 646.555 C 1055.733 649.129, 1057.420 651.614, 1061.425 655.555 C 1064.467 658.550, 1067.251 661, 1067.609 661 C 1067.968 661, 1068.002 659.400, 1067.685 657.445 C 1067.272 654.901, 1065.560 652.343, 1061.663 648.445 C 1058.668 645.450, 1055.885 643, 1055.478 643 C 1055.071 643, 1054.998 644.600, 1055.315 646.555 M 1108 646.859 C 1108 650.772, 1108.530 651.690, 1113.877 657.037 C 1117.109 660.269, 1120.034 662.633, 1120.377 662.290 C 1120.719 661.947, 1121 660.266, 1121 658.554 C 1121 656.051, 1119.728 654.181, 1114.500 649 L 1108 642.558 1108 646.859 M 170 647.779 C 170 651.102, 170.783 652.334, 176.500 658 L 183 664.442 183 660.301 C 183 656.567, 182.402 655.562, 176.920 650.080 C 173.576 646.736, 170.651 644, 170.420 644 C 170.189 644, 170 645.700, 170 647.779 M 640 647.779 C 640 651.102, 640.783 652.334, 646.500 658 C 652.663 664.108, 653 664.301, 653 661.721 C 653 660.225, 652.550 659, 652 659 C 651.450 659, 651 657.936, 651 656.636 C 651 655.139, 649.145 652.387, 645.945 649.136 C 643.164 646.311, 640.689 644, 640.445 644 C 640.200 644, 640 645.700, 640 647.779 M 414 648.859 C 414 652.772, 414.530 653.690, 419.877 659.037 C 423.109 662.269, 426.034 664.633, 426.377 664.290 C 426.719 663.947, 427 662.266, 427 660.554 C 427 658.051, 425.728 656.181, 420.500 651 L 414 644.558 414 648.859 M 236.269 652.131 C 235.428 652.972, 236.790 654.930, 241.585 659.772 C 247.632 665.879, 248.142 666.181, 249.825 664.659 C 251.503 663.140, 251.901 663.323, 256.017 667.518 C 259.574 671.142, 261.089 672, 263.929 672 L 267.442 672 260.971 665.460 C 254.916 659.341, 254.243 658.939, 250.500 659.210 C 246.932 659.469, 246.059 659.041, 242.421 655.250 C 237.907 650.546, 237.872 650.528, 236.269 652.131 M 858 654.779 C 858 657.100, 857.523 659, 856.940 659 C 856.357 659, 858.776 661.925, 862.316 665.500 C 865.856 669.075, 869.258 672, 869.876 672 C 870.533 672, 871 670.222, 871 667.721 C 871 663.782, 870.484 662.930, 864.500 657 L 858 650.558 858 654.779 M 366 655.281 C 366 657.984, 365.574 659, 364.440 659 C 363.526 659, 365.547 661.694, 369.316 665.500 C 372.856 669.075, 376.258 672, 376.876 672 C 377.533 672, 378 670.221, 378 667.719 C 378 663.812, 377.474 662.917, 372 657.500 L 366 651.563 366 655.281 M 268 655.986 C 268 658.206, 267.487 658.934, 265.750 659.180 C 263.726 659.468, 264.112 660.128, 269.597 665.750 C 274.049 670.313, 276.411 672, 278.347 672 C 280.617 672, 281 671.575, 281 669.056 C 281 666.765, 279.557 664.668, 274.500 659.611 C 268.181 653.292, 268 653.191, 268 655.986 M 806 655.870 C 806 658.178, 805.503 658.934, 803.821 659.180 C 801.907 659.461, 802.401 660.258, 807.901 665.750 C 815.236 673.075, 819 674.135, 819 668.876 C 819 666.358, 817.739 664.504, 812.500 659.316 C 806.050 652.929, 806 652.903, 806 655.870 M 97 659.418 C 100.025 662.569, 103.400 665.618, 104.500 666.194 C 107.124 667.567, 98.381 658.447, 94.500 655.763 C 92.630 654.470, 93.572 655.847, 97 659.418 M 567 659.418 C 570.025 662.569, 573.400 665.618, 574.500 666.194 C 577.124 667.567, 568.381 658.447, 564.500 655.763 C 562.630 654.470, 563.572 655.847, 567 659.418 M 442 658.462 C 443.925 660.503, 446.850 663.107, 448.500 664.247 C 450.794 665.832, 450.442 665.205, 447 661.583 C 444.525 658.978, 441.600 656.374, 440.500 655.798 C 439.312 655.175, 439.921 656.256, 442 658.462 M 755 656.979 C 755 658.576, 765.186 670, 766.610 670 C 766.825 670, 767 669.150, 767 668.110 C 767 666.506, 756.888 655, 755.479 655 C 755.215 655, 755 655.890, 755 656.979 M 926.752 656.841 C 925.240 657.754, 924.003 658.738, 924.002 659.029 C 924.001 659.320, 926.818 662.350, 930.261 665.763 L 936.522 671.969 939.834 669.954 C 943.119 667.957, 943.676 665.392, 940.776 665.617 C 939.946 665.681, 939.319 665.006, 939.383 664.117 C 939.449 663.205, 938.795 662.551, 937.883 662.617 C 936.971 662.682, 936.318 662.029, 936.383 661.117 C 936.451 660.183, 935.794 659.553, 934.829 659.626 C 933.841 659.700, 933.362 659.221, 933.657 658.452 C 933.931 657.738, 933.250 656.669, 932.143 656.077 C 929.784 654.814, 930.211 654.754, 926.752 656.841 M 991 660.500 C 993.987 663.525, 996.657 666, 996.932 666 C 997.207 666, 994.987 663.525, 992 660.500 C 989.013 657.475, 986.343 655, 986.068 655 C 985.793 655, 988.013 657.475, 991 660.500 M 157.707 657.327 L 153.914 658.500 160.364 664.879 C 166.480 670.928, 166.999 671.223, 170.407 670.583 C 172.383 670.213, 174 669.516, 174 669.035 C 174 668.294, 162.163 655.854, 161.670 656.077 C 161.577 656.119, 159.793 656.682, 157.707 657.327 M 627.707 657.327 L 623.914 658.500 630.364 664.879 C 636.480 670.928, 636.999 671.223, 640.407 670.583 C 642.383 670.213, 644 669.516, 644 669.035 C 644 668.294, 632.163 655.854, 631.670 656.077 C 631.577 656.119, 629.793 656.682, 627.707 657.327 M 959 657.279 C 959 658.585, 958.141 659, 955.440 659 L 951.879 659 958.316 665.500 C 963.881 671.120, 965.243 672, 968.376 672 C 973.789 672, 973.071 669.504, 965.500 662 C 961.180 657.718, 959 656.135, 959 657.279 M 193.500 663.034 C 198.957 668.599, 205 673.003, 205 671.417 C 205 670.030, 194.286 660.247, 191 658.634 C 187.783 657.055, 187.985 657.411, 193.500 663.034 M 317 658 C 317 658.550, 315.325 659, 313.279 659 L 309.558 659 316 665.500 C 321.666 671.217, 322.898 672, 326.221 672 C 331.549 672, 331.101 670.261, 323.920 663.080 C 317.618 656.778, 317 656.324, 317 658 M 501.750 657.716 C 500.238 657.945, 499 658.453, 499 658.845 C 499 659.237, 501.818 662.351, 505.262 665.764 L 511.524 671.970 515.399 670.900 L 519.274 669.830 512.916 663.415 C 509.419 659.887, 506.095 657.067, 505.529 657.150 C 504.963 657.232, 503.262 657.487, 501.750 657.716 M 1049 657.658 C 1048.175 657.933, 1046.887 658.353, 1046.137 658.591 C 1045.260 658.870, 1047.060 661.287, 1051.182 665.369 C 1056.901 671.032, 1057.935 671.663, 1060.807 671.242 C 1062.577 670.982, 1064.287 670.345, 1064.608 669.825 C 1065.320 668.674, 1053.517 656.968, 1051.756 657.079 C 1051.065 657.122, 1049.825 657.383, 1049 657.658 M 222.315 659.228 L 219.129 660.252 225.590 666.777 L 232.051 673.301 236.165 672.069 L 240.280 670.836 233.919 664.418 C 227.176 657.615, 227.242 657.644, 222.315 659.228 M 109 665.314 C 114.103 670.463, 116.360 672.025, 119.500 672.583 L 123.500 673.295 116.741 666.647 C 113.024 662.991, 109.424 659.994, 108.741 659.986 C 108.059 659.979, 106.375 659.699, 105 659.364 C 103 658.878, 103.799 660.067, 109 665.314 M 286.316 665.500 C 289.856 669.075, 293.582 672, 294.597 672 C 295.919 672, 294.616 670.157, 290 665.500 C 286.457 661.925, 282.730 659, 281.719 659 C 280.404 659, 281.717 660.856, 286.316 665.500 M 293 659.420 C 293 659.651, 295.736 662.576, 299.080 665.920 C 304.452 671.292, 305.616 672, 309.080 672 C 311.236 672, 313 671.811, 313 671.580 C 313 671.349, 310.264 668.424, 306.920 665.080 C 301.548 659.708, 300.384 659, 296.920 659 C 294.764 659, 293 659.189, 293 659.420 M 329.862 659.700 C 330.612 659.998, 333.836 662.919, 337.028 666.190 C 342.093 671.383, 343.246 672.099, 346.097 671.820 L 349.363 671.500 343.101 665.250 C 337.362 659.522, 336.492 659.007, 332.670 659.079 C 330.377 659.122, 329.113 659.402, 329.862 659.700 M 352.316 665.500 C 358.298 671.542, 359.061 671.999, 363.126 671.982 L 367.500 671.964 360.860 665.482 C 354.838 659.604, 353.831 659, 350.049 659 L 345.879 659 352.316 665.500 M 390.089 665.571 C 396.185 671.667, 396.937 672.118, 400.511 671.821 L 404.362 671.500 398.101 665.250 C 392.429 659.588, 391.449 659, 387.679 659 L 383.519 659 390.089 665.571 M 407.316 665.500 C 412.881 671.120, 414.243 672, 417.376 672 C 419.369 672, 421 671.706, 421 671.347 C 421 670.988, 418.303 668.063, 415.006 664.847 C 409.687 659.659, 408.553 659, 404.945 659 L 400.879 659 407.316 665.500 M 453.461 664.862 C 458.695 670.237, 465.204 674.129, 466.610 672.723 C 467.296 672.038, 455.068 660.003, 453.670 659.986 C 453.026 659.979, 451.375 659.695, 450 659.356 C 447.952 658.851, 448.577 659.846, 453.461 664.862 M 574 659.561 C 574 659.890, 576.631 662.791, 579.846 666.006 C 584.261 670.421, 586.647 672.020, 589.596 672.542 L 593.500 673.233 588 667.543 C 584.975 664.413, 581.825 661.498, 581 661.065 C 578.777 659.897, 574 658.871, 574 659.561 M 663 659.506 C 663 659.784, 665.631 662.709, 668.847 666.006 C 674.233 671.526, 675.040 672, 679.069 672 L 683.442 672 677 665.500 C 671.334 659.783, 670.102 659, 666.779 659 C 664.700 659, 663 659.228, 663 659.506 M 680 659.420 C 680 659.651, 682.736 662.576, 686.080 665.920 C 691.562 671.402, 692.567 672, 696.301 672 L 700.442 672 694 665.500 C 688.334 659.783, 687.102 659, 683.779 659 C 681.700 659, 680 659.189, 680 659.420 M 725.316 665.500 C 731.272 671.515, 732.076 672, 736.097 672 L 740.442 672 734 665.500 C 728.042 659.488, 727.232 659, 723.219 659 L 718.879 659 725.316 665.500 M 737 659.420 C 737 659.651, 739.736 662.576, 743.080 665.920 C 748.562 671.402, 749.567 672, 753.301 672 L 757.442 672 751 665.500 C 745.334 659.783, 744.102 659, 740.779 659 C 738.700 659, 737 659.189, 737 659.420 M 775 665.500 C 780.486 671.035, 781.962 672, 784.942 672 L 788.442 672 782 665.500 C 776.514 659.965, 775.038 659, 772.058 659 L 768.558 659 775 665.500 M 785 659.506 C 785 659.784, 787.631 662.709, 790.847 666.006 C 796.233 671.526, 797.040 672, 801.069 672 L 805.442 672 799 665.500 C 793.334 659.783, 792.102 659, 788.779 659 C 786.700 659, 785 659.228, 785 659.506 M 821 659.420 C 821 659.651, 823.736 662.576, 827.080 665.920 C 832.686 671.526, 833.505 672, 837.580 672 C 840.011 672, 842 671.811, 842 671.580 C 842 671.349, 839.264 668.424, 835.920 665.080 C 830.314 659.474, 829.495 659, 825.420 659 C 822.989 659, 821 659.189, 821 659.420 M 845.379 665.564 C 851.359 671.603, 852.178 672.103, 855.620 671.814 L 859.362 671.500 853.101 665.250 C 847.520 659.679, 846.408 659, 842.860 659 L 838.879 659 845.379 665.564 M 896.007 665.512 C 901.572 671.130, 907.387 674.643, 908.941 673.325 C 909.184 673.119, 906.963 670.501, 904.006 667.506 C 900.523 663.980, 897.024 661.515, 894.072 660.509 L 889.514 658.956 896.007 665.512 M 944.503 665.003 C 950.187 670.747, 953.471 672.862, 954.737 671.596 C 955.834 670.499, 943.099 659, 940.787 659 C 938.901 659, 939.465 659.912, 944.503 665.003 M 995 659.609 C 995 659.943, 997.450 662.668, 1000.445 665.663 C 1005.136 670.353, 1011.450 673.883, 1012.777 672.556 C 1013.560 671.774, 1002.252 661.046, 999.569 660.026 C 996.502 658.860, 995 658.723, 995 659.609 M 1086.089 665.571 C 1092.185 671.667, 1092.937 672.118, 1096.511 671.821 L 1100.362 671.500 1094.101 665.250 C 1088.429 659.588, 1087.449 659, 1083.679 659 L 1079.519 659 1086.089 665.571 M 1103.316 665.500 C 1109.298 671.542, 1110.061 671.999, 1114.126 671.982 L 1118.500 671.964 1111.860 665.482 C 1105.838 659.604, 1104.831 659, 1101.049 659 L 1096.879 659 1103.316 665.500 M 140.252 660.723 L 137.005 661.126 143.378 667.563 C 149.565 673.811, 151.426 674.675, 155.366 673.126 C 156.985 672.490, 156.410 671.570, 151.036 666.196 C 147.628 662.788, 144.538 660.072, 144.170 660.160 C 143.802 660.248, 142.039 660.501, 140.252 660.723 M 484.749 660.728 L 480.999 661.121 487.376 667.560 C 492.770 673.009, 494.284 674, 497.209 674 C 499.111 674, 500.979 673.687, 501.361 673.305 C 502.047 672.619, 490.053 659.843, 489.029 660.168 C 488.738 660.261, 486.812 660.513, 484.749 660.728 M 610.252 660.723 L 607.005 661.126 613.378 667.563 C 619.750 673.998, 621.850 674.904, 626.310 673.146 C 627.842 672.542, 627.125 671.477, 621.646 666.216 C 618.086 662.797, 614.797 660.072, 614.337 660.160 C 613.876 660.248, 612.039 660.501, 610.252 660.723 M 1031.103 660.734 L 1027.705 661.149 1034.074 667.574 C 1039.279 672.826, 1041.030 674, 1043.662 674 C 1045.433 674, 1047.136 673.589, 1047.447 673.086 C 1048.028 672.146, 1036.371 659.873, 1035.170 660.160 C 1034.802 660.248, 1032.971 660.507, 1031.103 660.734 M 120 661.651 C 120 661.904, 122.900 665.011, 126.444 668.556 C 131.954 674.065, 133.405 675, 136.444 675 C 138.400 675, 140 674.648, 140 674.219 C 140 673.789, 137.412 670.917, 134.250 667.838 C 129.557 663.267, 127.719 662.141, 124.250 661.714 C 121.912 661.426, 120 661.397, 120 661.651 M 202 661.439 C 202 661.660, 204.736 664.576, 208.080 667.920 C 212.053 671.893, 214.970 674, 216.498 674 C 217.784 674, 219.548 674.273, 220.418 674.607 C 223.400 675.751, 221.997 673.217, 216.630 667.764 C 212.106 663.167, 210.531 662.208, 206.630 661.673 C 204.084 661.324, 202 661.219, 202 661.439 M 464 661.563 C 464 661.737, 466.981 664.832, 470.625 668.440 C 476.018 673.780, 477.847 675, 480.459 675 C 482.223 675, 483.947 674.720, 484.290 674.377 C 484.633 674.034, 482.339 671.179, 479.193 668.033 C 474.217 663.057, 472.857 662.244, 468.737 661.780 C 466.132 661.486, 464 661.388, 464 661.563 M 590 661.535 C 590 661.724, 592.981 664.832, 596.625 668.440 C 602.155 673.915, 603.808 675, 606.625 675 C 608.481 675, 610 674.648, 610 674.219 C 610 673.789, 607.413 670.917, 604.250 667.838 C 599.557 663.267, 597.719 662.141, 594.250 661.714 C 591.913 661.426, 590 661.345, 590 661.535 M 908.861 661.706 C 906.298 662.100, 906.408 662.297, 912.667 668.556 C 919.059 674.948, 920.331 675.553, 924.834 674.348 C 927.038 673.758, 926.818 673.370, 920.863 667.361 C 917.395 663.863, 913.870 661.067, 913.029 661.150 C 912.188 661.232, 910.313 661.482, 908.861 661.706 M 1011 661.937 C 1011 662.347, 1013.886 665.454, 1017.413 668.841 C 1022.837 674.049, 1024.381 675, 1027.413 675 C 1029.386 675, 1031 674.739, 1031 674.420 C 1031 674.101, 1028.410 671.250, 1025.244 668.084 C 1020.532 663.372, 1018.720 662.226, 1015.244 661.760 C 1012.910 661.446, 1011 661.526, 1011 661.937" stroke="none" fill="#d7d7d7" fill-rule="evenodd"/></g></svg>