<svg width="384" height="279" viewBox="0 0 384 279" fill="none" xmlns="http://www.w3.org/2000/svg">
<rect width="384" height="279" fill="#0f172a"/>
<g filter="url(#filter0_di_0_1)">
<path d="M4.33975 262L13 270.66L21.6603 262L13 253.34L4.33975 262ZM379.66 262L371 253.34L362.34 262L371 270.66L379.66 262ZM13 263.5H371V260.5H13V263.5Z" fill="white"/>
</g>
<g filter="url(#filter1_di_0_1)">
<path fill-rule="evenodd" clip-rule="evenodd" d="M338.41 203.2H360.487L367.664 210.378V242.822L360.487 250H338.41L331.232 242.822V210.378L338.41 203.2ZM339.239 205.2L333.232 211.206V241.994L339.239 248H359.658L365.664 241.994V211.206L359.658 205.2H339.239ZM339.978 206.144H358.949L364.656 211.816V241.224L358.949 246.896H339.978L334.304 241.222V211.818L339.978 206.144ZM340.807 208.144L336.304 212.646V240.394L340.807 244.896H358.124L362.656 240.392V212.648L358.124 208.144H340.807ZM341.421 209.184H357.505L361.616 213.22V239.82L357.505 243.856H341.421L337.344 239.817V213.223L341.421 209.184ZM342.244 211.184L339.344 214.057V238.983L342.244 241.856H356.688L359.616 238.98V214.06L356.688 211.184H342.244ZM342.826 212.256H356.071L358.608 214.794V238.406L356.071 240.944H342.826L340.288 238.406V214.794L342.826 212.256ZM343.655 214.256L342.288 215.622V237.578L343.655 238.944H355.242L356.608 237.578V215.622L355.242 214.256H343.655Z" fill="white"/>
</g>
<g filter="url(#filter2_di_0_1)">
<path fill-rule="evenodd" clip-rule="evenodd" d="M288.1 203.2H299.156V232.136L305.097 238.048H307.95L313.86 232.138V203.2H324.916V237.382L312.298 250H300.718L288.1 237.382V203.2ZM290.1 205.2V236.554L301.546 248H311.47L322.916 236.554V205.2H315.86V232.966L308.778 240.048H304.271L297.156 232.968V205.2H290.1ZM291.108 206.144H296.148V233.701L304.294 241.728H308.753L316.868 233.703V206.144H321.908V235.944L310.792 246.992H302.256L291.108 235.945V206.144ZM293.108 208.144V235.111L303.08 244.992H309.968L319.908 235.112V208.144H318.868V234.537L309.575 243.728H303.474L294.148 234.539V208.144H293.108Z" fill="white"/>
</g>
<g filter="url(#filter3_di_0_1)">
<path fill-rule="evenodd" clip-rule="evenodd" d="M253.13 203.2H274.631L281.809 210.378V250H270.784V236.816H256.976V250H245.952V210.378L253.13 203.2ZM253.959 205.2L247.952 211.206V248H254.976V234.816H272.784V248H279.809V211.206L273.802 205.2H253.959ZM254.728 206.016H273.127L278.832 211.722V246.768H273.792V233.904H254.096V246.768H249.056V211.724L254.728 206.016ZM255.561 208.016L251.056 212.548V244.768H252.096V231.904H275.792V244.768H276.832V212.55L272.298 208.016H255.561ZM256.17 209.056H271.684L275.792 213.127V230.864H252.096V213.13L256.17 209.056ZM256.999 211.056L254.096 213.958V228.864H273.792V213.961L270.861 211.056H256.999ZM257.514 212.256H270.247L272.784 214.794V227.792H254.976V214.794L257.514 212.256ZM258.343 214.256L256.976 215.622V225.792H270.784V215.622L269.418 214.256H258.343Z" fill="white"/>
</g>
<g filter="url(#filter4_di_0_1)">
<path fill-rule="evenodd" clip-rule="evenodd" d="M205.382 203.2H233.389L240.566 210.378V228.838L232.781 236.624H216.438V250H205.382V203.2ZM207.382 205.2V248H214.438V234.624H231.952L238.566 228.01V211.206L232.56 205.2H207.382ZM208.326 206.144H232.013L237.686 211.818V227.237L231.438 233.52H213.366V247.408H208.326V206.144ZM210.326 208.144V245.408H211.366V231.52H230.607L235.686 226.411V212.646L231.184 208.144H210.326ZM211.366 209.184H230.567L234.678 213.22V225.835L229.96 230.48H211.366V209.184ZM213.366 211.184V228.48H229.141L232.678 224.997V214.06L229.75 211.184H213.366ZM214.438 212.256H229.005L231.542 214.794V224.426L228.361 227.568H214.438V212.256ZM216.438 214.256V225.568H227.54L229.542 223.59V215.622L228.176 214.256H216.438Z" fill="white"/>
</g>
<g filter="url(#filter5_di_0_1)">
<path fill-rule="evenodd" clip-rule="evenodd" d="M169.788 203.2H191.864L199.042 210.378V242.822L191.864 250H169.788L162.61 242.822V210.378L169.788 203.2ZM170.616 205.2L164.61 211.206V241.994L170.616 248H191.036L197.042 241.994V211.206L191.036 205.2H170.616ZM171.356 206.144H190.326L196.034 211.816V241.224L190.326 246.896H171.356L165.682 241.222V211.818L171.356 206.144ZM172.184 208.144L167.682 212.646V240.394L172.184 244.896H189.502L194.034 240.392V212.648L189.502 208.144H172.184ZM172.798 209.184H188.883L192.994 213.22V239.82L188.883 243.856H172.798L168.722 239.817V213.223L172.798 209.184ZM173.622 211.184L170.722 214.057V238.983L173.622 241.856H188.065L190.994 238.98V214.06L188.065 211.184H173.622ZM174.204 212.256H187.448L189.986 214.794V238.406L187.448 240.944H174.204L171.666 238.406V214.794L174.204 212.256ZM175.032 214.256L173.666 215.622V237.578L175.032 238.944H186.62L187.986 237.578V215.622L186.62 214.256H175.032Z" fill="white"/>
</g>
<g filter="url(#filter6_di_0_1)">
<path fill-rule="evenodd" clip-rule="evenodd" d="M115.415 203.2H134.527L145.239 237.657V203.2H156.295V250H137.183L126.471 215.647V250H115.415V203.2ZM117.415 205.2V248H124.471V212.288H127.519L138.655 248H154.295V205.2H147.239V240.816H144.127L133.055 205.2H117.415ZM148.311 206.144H153.351V246.992H139.752L128.168 211.344H123.431V247.12H118.391V206.24H132.023L143.543 241.888H148.311V206.144ZM150.311 208.144V243.888H142.087L130.567 208.24H120.391V245.12H121.431V209.344H129.622L141.206 244.992H151.351V208.144H150.311Z" fill="white"/>
</g>
<g filter="url(#filter7_di_0_1)">
<path fill-rule="evenodd" clip-rule="evenodd" d="M79.8203 203.2H101.897L109.074 210.378V242.822L101.897 250H79.8203L72.6425 242.822V210.378L79.8203 203.2ZM80.6487 205.2L74.6425 211.206V241.994L80.6487 248H101.068L107.074 241.994V211.206L101.068 205.2H80.6487ZM81.3883 206.144H100.359L106.066 211.816V241.224L100.359 246.896H81.3883L75.7145 241.222V211.818L81.3883 206.144ZM82.2167 208.144L77.7145 212.646V240.394L82.2167 244.896H99.5341L104.066 240.392V212.648L99.5341 208.144H82.2167ZM82.831 209.184H98.9153L103.026 213.22V239.82L98.9153 243.856H82.831L78.7545 239.817V213.223L82.831 209.184ZM83.654 211.184L80.7545 214.057V238.983L83.654 241.856H98.0976L101.026 238.98V214.06L98.0976 211.184H83.654ZM84.2363 212.256H97.4807L100.018 214.794V238.406L97.4807 240.944H84.2363L81.6985 238.406V214.794L84.2363 212.256ZM85.0647 214.256L83.6985 215.622V237.578L85.0647 238.944H96.6523L98.0185 237.578V215.622L96.6523 214.256H85.0647Z" fill="white"/>
</g>
<g filter="url(#filter8_di_0_1)">
<path fill-rule="evenodd" clip-rule="evenodd" d="M15.635 203.2H35.1752L40.507 234.528L45.8388 203.2H65.347V250H54.291V217.728L49.3811 246.16H31.632L26.691 217.381V250H15.635V203.2ZM17.635 205.2V248H24.691V212.288H27.8459L33.3179 244.16H47.6969L53.2009 212.288H56.291V248H63.347V205.2H47.5272L42.1192 236.976H38.8948L33.4868 205.2H17.635ZM18.611 206.176H32.5393L38.3633 237.728H42.6187L48.4427 206.176H62.339V247.024H57.299V211.28H52.6025L46.7465 242.832H34.2035L28.3475 211.28H23.651V247.024H18.611V206.176ZM20.611 208.176V245.024H21.651V209.28H30.0105L35.8665 240.832H45.0835L50.9395 209.28H59.299V245.024H60.339V208.176H50.1073L44.2833 239.728H36.6987L30.8747 208.176H20.611Z" fill="white"/>
</g>
<g filter="url(#filter9_di_0_1)">
<path d="M147 190.5L170 128L176 64" stroke="white" stroke-width="3"/>
</g>
<g filter="url(#filter10_di_0_1)">
<path d="M237 190.5L214 128L208 64" stroke="white" stroke-width="3"/>
</g>
<g filter="url(#filter11_di_0_1)">
<path d="M175.367 62.8763L192 58.0616L208.633 62.8763L192 88.2629L175.367 62.8763Z" stroke="white" stroke-width="3" shape-rendering="crispEdges"/>
</g>
<g filter="url(#filter12_di_0_1)">
<path d="M191.5 20L189.113 25H194.887L192.5 20H191.5ZM192 0.113249L189.113 3L192 5.88675L194.887 3L192 0.113249ZM192.5 20.5V3H191.5V20.5H192.5Z" fill="white"/>
</g>
<g filter="url(#filter13_di_0_1)">
<path d="M4.33975 191L13 199.66L21.6603 191L13 182.34L4.33975 191ZM379.66 191L371 182.34L362.34 191L371 199.66L379.66 191ZM13 192.5H371V189.5H13V192.5Z" fill="white"/>
</g>
<defs>
<filter id="filter0_di_0_1" x="0.339752" y="253.34" width="383.32" height="25.3205" filterUnits="userSpaceOnUse" color-interpolation-filters="sRGB">
<feFlood flood-opacity="0" result="BackgroundImageFix"/>
<feColorMatrix in="SourceAlpha" type="matrix" values="0 0 0 0 0 0 0 0 0 0 0 0 0 0 0 0 0 0 127 0" result="hardAlpha"/>
<feOffset dy="4"/>
<feGaussianBlur stdDeviation="2"/>
<feComposite in2="hardAlpha" operator="out"/>
<feColorMatrix type="matrix" values="0 0 0 0 0 0 0 0 0 0 0 0 0 0 0 0 0 0 0.25 0"/>
<feBlend mode="normal" in2="BackgroundImageFix" result="effect1_dropShadow_0_1"/>
<feBlend mode="normal" in="SourceGraphic" in2="effect1_dropShadow_0_1" result="shape"/>
<feColorMatrix in="SourceAlpha" type="matrix" values="0 0 0 0 0 0 0 0 0 0 0 0 0 0 0 0 0 0 127 0" result="hardAlpha"/>
<feOffset dy="4"/>
<feGaussianBlur stdDeviation="2"/>
<feComposite in2="hardAlpha" operator="arithmetic" k2="-1" k3="1"/>
<feColorMatrix type="matrix" values="0 0 0 0 0 0 0 0 0 0 0 0 0 0 0 0 0 0 0.25 0"/>
<feBlend mode="normal" in2="shape" result="effect2_innerShadow_0_1"/>
</filter>
<filter id="filter1_di_0_1" x="327.232" y="203.2" width="44.432" height="54.8" filterUnits="userSpaceOnUse" color-interpolation-filters="sRGB">
<feFlood flood-opacity="0" result="BackgroundImageFix"/>
<feColorMatrix in="SourceAlpha" type="matrix" values="0 0 0 0 0 0 0 0 0 0 0 0 0 0 0 0 0 0 127 0" result="hardAlpha"/>
<feOffset dy="4"/>
<feGaussianBlur stdDeviation="2"/>
<feComposite in2="hardAlpha" operator="out"/>
<feColorMatrix type="matrix" values="0 0 0 0 0 0 0 0 0 0 0 0 0 0 0 0 0 0 0.25 0"/>
<feBlend mode="normal" in2="BackgroundImageFix" result="effect1_dropShadow_0_1"/>
<feBlend mode="normal" in="SourceGraphic" in2="effect1_dropShadow_0_1" result="shape"/>
<feColorMatrix in="SourceAlpha" type="matrix" values="0 0 0 0 0 0 0 0 0 0 0 0 0 0 0 0 0 0 127 0" result="hardAlpha"/>
<feOffset dy="4"/>
<feGaussianBlur stdDeviation="2"/>
<feComposite in2="hardAlpha" operator="arithmetic" k2="-1" k3="1"/>
<feColorMatrix type="matrix" values="0 0 0 0 0 0 0 0 0 0 0 0 0 0 0 0 0 0 0.25 0"/>
<feBlend mode="normal" in2="shape" result="effect2_innerShadow_0_1"/>
</filter>
<filter id="filter2_di_0_1" x="284.1" y="203.2" width="44.816" height="54.8" filterUnits="userSpaceOnUse" color-interpolation-filters="sRGB">
<feFlood flood-opacity="0" result="BackgroundImageFix"/>
<feColorMatrix in="SourceAlpha" type="matrix" values="0 0 0 0 0 0 0 0 0 0 0 0 0 0 0 0 0 0 127 0" result="hardAlpha"/>
<feOffset dy="4"/>
<feGaussianBlur stdDeviation="2"/>
<feComposite in2="hardAlpha" operator="out"/>
<feColorMatrix type="matrix" values="0 0 0 0 0 0 0 0 0 0 0 0 0 0 0 0 0 0 0.25 0"/>
<feBlend mode="normal" in2="BackgroundImageFix" result="effect1_dropShadow_0_1"/>
<feBlend mode="normal" in="SourceGraphic" in2="effect1_dropShadow_0_1" result="shape"/>
<feColorMatrix in="SourceAlpha" type="matrix" values="0 0 0 0 0 0 0 0 0 0 0 0 0 0 0 0 0 0 127 0" result="hardAlpha"/>
<feOffset dy="4"/>
<feGaussianBlur stdDeviation="2"/>
<feComposite in2="hardAlpha" operator="arithmetic" k2="-1" k3="1"/>
<feColorMatrix type="matrix" values="0 0 0 0 0 0 0 0 0 0 0 0 0 0 0 0 0 0 0.25 0"/>
<feBlend mode="normal" in2="shape" result="effect2_innerShadow_0_1"/>
</filter>
<filter id="filter3_di_0_1" x="241.952" y="203.2" width="43.856" height="54.8" filterUnits="userSpaceOnUse" color-interpolation-filters="sRGB">
<feFlood flood-opacity="0" result="BackgroundImageFix"/>
<feColorMatrix in="SourceAlpha" type="matrix" values="0 0 0 0 0 0 0 0 0 0 0 0 0 0 0 0 0 0 127 0" result="hardAlpha"/>
<feOffset dy="4"/>
<feGaussianBlur stdDeviation="2"/>
<feComposite in2="hardAlpha" operator="out"/>
<feColorMatrix type="matrix" values="0 0 0 0 0 0 0 0 0 0 0 0 0 0 0 0 0 0 0.25 0"/>
<feBlend mode="normal" in2="BackgroundImageFix" result="effect1_dropShadow_0_1"/>
<feBlend mode="normal" in="SourceGraphic" in2="effect1_dropShadow_0_1" result="shape"/>
<feColorMatrix in="SourceAlpha" type="matrix" values="0 0 0 0 0 0 0 0 0 0 0 0 0 0 0 0 0 0 127 0" result="hardAlpha"/>
<feOffset dy="4"/>
<feGaussianBlur stdDeviation="2"/>
<feComposite in2="hardAlpha" operator="arithmetic" k2="-1" k3="1"/>
<feColorMatrix type="matrix" values="0 0 0 0 0 0 0 0 0 0 0 0 0 0 0 0 0 0 0.25 0"/>
<feBlend mode="normal" in2="shape" result="effect2_innerShadow_0_1"/>
</filter>
<filter id="filter4_di_0_1" x="201.382" y="203.2" width="43.184" height="54.8" filterUnits="userSpaceOnUse" color-interpolation-filters="sRGB">
<feFlood flood-opacity="0" result="BackgroundImageFix"/>
<feColorMatrix in="SourceAlpha" type="matrix" values="0 0 0 0 0 0 0 0 0 0 0 0 0 0 0 0 0 0 127 0" result="hardAlpha"/>
<feOffset dy="4"/>
<feGaussianBlur stdDeviation="2"/>
<feComposite in2="hardAlpha" operator="out"/>
<feColorMatrix type="matrix" values="0 0 0 0 0 0 0 0 0 0 0 0 0 0 0 0 0 0 0.25 0"/>
<feBlend mode="normal" in2="BackgroundImageFix" result="effect1_dropShadow_0_1"/>
<feBlend mode="normal" in="SourceGraphic" in2="effect1_dropShadow_0_1" result="shape"/>
<feColorMatrix in="SourceAlpha" type="matrix" values="0 0 0 0 0 0 0 0 0 0 0 0 0 0 0 0 0 0 127 0" result="hardAlpha"/>
<feOffset dy="4"/>
<feGaussianBlur stdDeviation="2"/>
<feComposite in2="hardAlpha" operator="arithmetic" k2="-1" k3="1"/>
<feColorMatrix type="matrix" values="0 0 0 0 0 0 0 0 0 0 0 0 0 0 0 0 0 0 0.25 0"/>
<feBlend mode="normal" in2="shape" result="effect2_innerShadow_0_1"/>
</filter>
<filter id="filter5_di_0_1" x="158.61" y="203.2" width="44.432" height="54.8" filterUnits="userSpaceOnUse" color-interpolation-filters="sRGB">
<feFlood flood-opacity="0" result="BackgroundImageFix"/>
<feColorMatrix in="SourceAlpha" type="matrix" values="0 0 0 0 0 0 0 0 0 0 0 0 0 0 0 0 0 0 127 0" result="hardAlpha"/>
<feOffset dy="4"/>
<feGaussianBlur stdDeviation="2"/>
<feComposite in2="hardAlpha" operator="out"/>
<feColorMatrix type="matrix" values="0 0 0 0 0 0 0 0 0 0 0 0 0 0 0 0 0 0 0.25 0"/>
<feBlend mode="normal" in2="BackgroundImageFix" result="effect1_dropShadow_0_1"/>
<feBlend mode="normal" in="SourceGraphic" in2="effect1_dropShadow_0_1" result="shape"/>
<feColorMatrix in="SourceAlpha" type="matrix" values="0 0 0 0 0 0 0 0 0 0 0 0 0 0 0 0 0 0 127 0" result="hardAlpha"/>
<feOffset dy="4"/>
<feGaussianBlur stdDeviation="2"/>
<feComposite in2="hardAlpha" operator="arithmetic" k2="-1" k3="1"/>
<feColorMatrix type="matrix" values="0 0 0 0 0 0 0 0 0 0 0 0 0 0 0 0 0 0 0.25 0"/>
<feBlend mode="normal" in2="shape" result="effect2_innerShadow_0_1"/>
</filter>
<filter id="filter6_di_0_1" x="111.415" y="203.2" width="48.88" height="54.8" filterUnits="userSpaceOnUse" color-interpolation-filters="sRGB">
<feFlood flood-opacity="0" result="BackgroundImageFix"/>
<feColorMatrix in="SourceAlpha" type="matrix" values="0 0 0 0 0 0 0 0 0 0 0 0 0 0 0 0 0 0 127 0" result="hardAlpha"/>
<feOffset dy="4"/>
<feGaussianBlur stdDeviation="2"/>
<feComposite in2="hardAlpha" operator="out"/>
<feColorMatrix type="matrix" values="0 0 0 0 0 0 0 0 0 0 0 0 0 0 0 0 0 0 0.25 0"/>
<feBlend mode="normal" in2="BackgroundImageFix" result="effect1_dropShadow_0_1"/>
<feBlend mode="normal" in="SourceGraphic" in2="effect1_dropShadow_0_1" result="shape"/>
<feColorMatrix in="SourceAlpha" type="matrix" values="0 0 0 0 0 0 0 0 0 0 0 0 0 0 0 0 0 0 127 0" result="hardAlpha"/>
<feOffset dy="4"/>
<feGaussianBlur stdDeviation="2"/>
<feComposite in2="hardAlpha" operator="arithmetic" k2="-1" k3="1"/>
<feColorMatrix type="matrix" values="0 0 0 0 0 0 0 0 0 0 0 0 0 0 0 0 0 0 0.25 0"/>
<feBlend mode="normal" in2="shape" result="effect2_innerShadow_0_1"/>
</filter>
<filter id="filter7_di_0_1" x="68.6425" y="203.2" width="44.432" height="54.8" filterUnits="userSpaceOnUse" color-interpolation-filters="sRGB">
<feFlood flood-opacity="0" result="BackgroundImageFix"/>
<feColorMatrix in="SourceAlpha" type="matrix" values="0 0 0 0 0 0 0 0 0 0 0 0 0 0 0 0 0 0 127 0" result="hardAlpha"/>
<feOffset dy="4"/>
<feGaussianBlur stdDeviation="2"/>
<feComposite in2="hardAlpha" operator="out"/>
<feColorMatrix type="matrix" values="0 0 0 0 0 0 0 0 0 0 0 0 0 0 0 0 0 0 0.25 0"/>
<feBlend mode="normal" in2="BackgroundImageFix" result="effect1_dropShadow_0_1"/>
<feBlend mode="normal" in="SourceGraphic" in2="effect1_dropShadow_0_1" result="shape"/>
<feColorMatrix in="SourceAlpha" type="matrix" values="0 0 0 0 0 0 0 0 0 0 0 0 0 0 0 0 0 0 127 0" result="hardAlpha"/>
<feOffset dy="4"/>
<feGaussianBlur stdDeviation="2"/>
<feComposite in2="hardAlpha" operator="arithmetic" k2="-1" k3="1"/>
<feColorMatrix type="matrix" values="0 0 0 0 0 0 0 0 0 0 0 0 0 0 0 0 0 0 0.25 0"/>
<feBlend mode="normal" in2="shape" result="effect2_innerShadow_0_1"/>
</filter>
<filter id="filter8_di_0_1" x="11.635" y="203.2" width="57.712" height="54.8" filterUnits="userSpaceOnUse" color-interpolation-filters="sRGB">
<feFlood flood-opacity="0" result="BackgroundImageFix"/>
<feColorMatrix in="SourceAlpha" type="matrix" values="0 0 0 0 0 0 0 0 0 0 0 0 0 0 0 0 0 0 127 0" result="hardAlpha"/>
<feOffset dy="4"/>
<feGaussianBlur stdDeviation="2"/>
<feComposite in2="hardAlpha" operator="out"/>
<feColorMatrix type="matrix" values="0 0 0 0 0 0 0 0 0 0 0 0 0 0 0 0 0 0 0.25 0"/>
<feBlend mode="normal" in2="BackgroundImageFix" result="effect1_dropShadow_0_1"/>
<feBlend mode="normal" in="SourceGraphic" in2="effect1_dropShadow_0_1" result="shape"/>
<feColorMatrix in="SourceAlpha" type="matrix" values="0 0 0 0 0 0 0 0 0 0 0 0 0 0 0 0 0 0 127 0" result="hardAlpha"/>
<feOffset dy="4"/>
<feGaussianBlur stdDeviation="2"/>
<feComposite in2="hardAlpha" operator="arithmetic" k2="-1" k3="1"/>
<feColorMatrix type="matrix" values="0 0 0 0 0 0 0 0 0 0 0 0 0 0 0 0 0 0 0.25 0"/>
<feBlend mode="normal" in2="shape" result="effect2_innerShadow_0_1"/>
</filter>
<filter id="filter9_di_0_1" x="141.592" y="63.86" width="39.9012" height="135.158" filterUnits="userSpaceOnUse" color-interpolation-filters="sRGB">
<feFlood flood-opacity="0" result="BackgroundImageFix"/>
<feColorMatrix in="SourceAlpha" type="matrix" values="0 0 0 0 0 0 0 0 0 0 0 0 0 0 0 0 0 0 127 0" result="hardAlpha"/>
<feOffset dy="4"/>
<feGaussianBlur stdDeviation="2"/>
<feComposite in2="hardAlpha" operator="out"/>
<feColorMatrix type="matrix" values="0 0 0 0 0 0 0 0 0 0 0 0 0 0 0 0 0 0 0.25 0"/>
<feBlend mode="normal" in2="BackgroundImageFix" result="effect1_dropShadow_0_1"/>
<feBlend mode="normal" in="SourceGraphic" in2="effect1_dropShadow_0_1" result="shape"/>
<feColorMatrix in="SourceAlpha" type="matrix" values="0 0 0 0 0 0 0 0 0 0 0 0 0 0 0 0 0 0 127 0" result="hardAlpha"/>
<feOffset dy="4"/>
<feGaussianBlur stdDeviation="2"/>
<feComposite in2="hardAlpha" operator="arithmetic" k2="-1" k3="1"/>
<feColorMatrix type="matrix" values="0 0 0 0 0 0 0 0 0 0 0 0 0 0 0 0 0 0 0.25 0"/>
<feBlend mode="normal" in2="shape" result="effect2_innerShadow_0_1"/>
</filter>
<filter id="filter10_di_0_1" x="202.507" y="63.86" width="39.9012" height="135.158" filterUnits="userSpaceOnUse" color-interpolation-filters="sRGB">
<feFlood flood-opacity="0" result="BackgroundImageFix"/>
<feColorMatrix in="SourceAlpha" type="matrix" values="0 0 0 0 0 0 0 0 0 0 0 0 0 0 0 0 0 0 127 0" result="hardAlpha"/>
<feOffset dy="4"/>
<feGaussianBlur stdDeviation="2"/>
<feComposite in2="hardAlpha" operator="out"/>
<feColorMatrix type="matrix" values="0 0 0 0 0 0 0 0 0 0 0 0 0 0 0 0 0 0 0.25 0"/>
<feBlend mode="normal" in2="BackgroundImageFix" result="effect1_dropShadow_0_1"/>
<feBlend mode="normal" in="SourceGraphic" in2="effect1_dropShadow_0_1" result="shape"/>
<feColorMatrix in="SourceAlpha" type="matrix" values="0 0 0 0 0 0 0 0 0 0 0 0 0 0 0 0 0 0 127 0" result="hardAlpha"/>
<feOffset dy="4"/>
<feGaussianBlur stdDeviation="2"/>
<feComposite in2="hardAlpha" operator="arithmetic" k2="-1" k3="1"/>
<feColorMatrix type="matrix" values="0 0 0 0 0 0 0 0 0 0 0 0 0 0 0 0 0 0 0.25 0"/>
<feBlend mode="normal" in2="shape" result="effect2_innerShadow_0_1"/>
</filter>
<filter id="filter11_di_0_1" x="169" y="56.5" width="46" height="42.5" filterUnits="userSpaceOnUse" color-interpolation-filters="sRGB">
<feFlood flood-opacity="0" result="BackgroundImageFix"/>
<feColorMatrix in="SourceAlpha" type="matrix" values="0 0 0 0 0 0 0 0 0 0 0 0 0 0 0 0 0 0 127 0" result="hardAlpha"/>
<feOffset dy="4"/>
<feGaussianBlur stdDeviation="2"/>
<feComposite in2="hardAlpha" operator="out"/>
<feColorMatrix type="matrix" values="0 0 0 0 0 0 0 0 0 0 0 0 0 0 0 0 0 0 0.25 0"/>
<feBlend mode="normal" in2="BackgroundImageFix" result="effect1_dropShadow_0_1"/>
<feBlend mode="normal" in="SourceGraphic" in2="effect1_dropShadow_0_1" result="shape"/>
<feColorMatrix in="SourceAlpha" type="matrix" values="0 0 0 0 0 0 0 0 0 0 0 0 0 0 0 0 0 0 127 0" result="hardAlpha"/>
<feOffset dy="4"/>
<feGaussianBlur stdDeviation="2"/>
<feComposite in2="hardAlpha" operator="arithmetic" k2="-1" k3="1"/>
<feColorMatrix type="matrix" values="0 0 0 0 0 0 0 0 0 0 0 0 0 0 0 0 0 0 0.25 0"/>
<feBlend mode="normal" in2="shape" result="effect2_innerShadow_0_1"/>
</filter>
<filter id="filter12_di_0_1" x="185.113" y="0.113251" width="13.7735" height="32.8867" filterUnits="userSpaceOnUse" color-interpolation-filters="sRGB">
<feFlood flood-opacity="0" result="BackgroundImageFix"/>
<feColorMatrix in="SourceAlpha" type="matrix" values="0 0 0 0 0 0 0 0 0 0 0 0 0 0 0 0 0 0 127 0" result="hardAlpha"/>
<feOffset dy="4"/>
<feGaussianBlur stdDeviation="2"/>
<feComposite in2="hardAlpha" operator="out"/>
<feColorMatrix type="matrix" values="0 0 0 0 0 0 0 0 0 0 0 0 0 0 0 0 0 0 0.25 0"/>
<feBlend mode="normal" in2="BackgroundImageFix" result="effect1_dropShadow_0_1"/>
<feBlend mode="normal" in="SourceGraphic" in2="effect1_dropShadow_0_1" result="shape"/>
<feColorMatrix in="SourceAlpha" type="matrix" values="0 0 0 0 0 0 0 0 0 0 0 0 0 0 0 0 0 0 127 0" result="hardAlpha"/>
<feOffset dy="4"/>
<feGaussianBlur stdDeviation="2"/>
<feComposite in2="hardAlpha" operator="arithmetic" k2="-1" k3="1"/>
<feColorMatrix type="matrix" values="0 0 0 0 0 0 0 0 0 0 0 0 0 0 0 0 0 0 0.5 0"/>
<feBlend mode="normal" in2="shape" result="effect2_innerShadow_0_1"/>
</filter>
<filter id="filter13_di_0_1" x="0.339752" y="182.34" width="383.32" height="25.3205" filterUnits="userSpaceOnUse" color-interpolation-filters="sRGB">
<feFlood flood-opacity="0" result="BackgroundImageFix"/>
<feColorMatrix in="SourceAlpha" type="matrix" values="0 0 0 0 0 0 0 0 0 0 0 0 0 0 0 0 0 0 127 0" result="hardAlpha"/>
<feOffset dy="4"/>
<feGaussianBlur stdDeviation="2"/>
<feComposite in2="hardAlpha" operator="out"/>
<feColorMatrix type="matrix" values="0 0 0 0 0 0 0 0 0 0 0 0 0 0 0 0 0 0 0.25 0"/>
<feBlend mode="normal" in2="BackgroundImageFix" result="effect1_dropShadow_0_1"/>
<feBlend mode="normal" in="SourceGraphic" in2="effect1_dropShadow_0_1" result="shape"/>
<feColorMatrix in="SourceAlpha" type="matrix" values="0 0 0 0 0 0 0 0 0 0 0 0 0 0 0 0 0 0 127 0" result="hardAlpha"/>
<feOffset dy="4"/>
<feGaussianBlur stdDeviation="2"/>
<feComposite in2="hardAlpha" operator="arithmetic" k2="-1" k3="1"/>
<feColorMatrix type="matrix" values="0 0 0 0 0 0 0 0 0 0 0 0 0 0 0 0 0 0 0.25 0"/>
<feBlend mode="normal" in2="shape" result="effect2_innerShadow_0_1"/>
</filter>
</defs>
</svg>
