<svg xmlns="http://www.w3.org/2000/svg" viewBox="0 0 512 512" style="height: 512px; width: 512px;"><defs><linearGradient x1="0" x2="1" y1="0" y2="1" id="skoll-chess-knight-gradient-0"><stop offset="0%" stop-color="#a19e9e" stop-opacity="1"></stop><stop offset="100%" stop-color="#0f172a" stop-opacity="1"></stop></linearGradient></defs><rect fill="url(#skoll-chess-knight-gradient-0)" stroke="#ffffff" stroke-opacity="1" stroke-width="5" height="502" width="502" rx="32" ry="32"></rect><g class="" transform="translate(0,0)" style=""><path d="M60.81 476.91h300v-60h-300v60zm233.79-347.3l13.94 7.39c31.88-43.62 61.34-31.85 61.34-31.85l-21.62 53 35.64 19 2.87 33 64.42 108.75-43.55 29.37s-26.82-36.39-39.65-43.66c-10.66-6-41.22-10.25-56.17-12l-67.54-76.91-12 10.56 37.15 42.31c-.13.18-.25.37-.38.57-35.78 58.17 23 105.69 68.49 131.78H84.14C93 85 294.6 129.61 294.6 129.61z" fill="#fff" fill-opacity="1"></path></g></svg>